<svg width="117" height="117" viewBox="0 0 117 117" fill="none" xmlns="http://www.w3.org/2000/svg">
<g clip-path="url(#clip0_5375_6874)">
<path d="M67.275 97.4512C61.7967 97.7742 57.007 96.3605 52.8449 93.082C48.7195 89.4379 48.098 88.3656 46.148 85.0199C45.8067 84.4351 45.4168 83.7707 44.9657 83.0031C51.6078 87.6343 58.8716 87.3601 61.6688 86.6469C66.5133 85.6051 71.0592 84.0145 75.1725 81.5406L85.7512 91.6683C80.3583 94.6543 73.5638 97.0918 67.275 97.4512ZM42.5406 21.2733C51.5105 21.2733 58.7742 28.4212 58.7742 37.2267V81.5406C49.8043 81.5406 42.5406 76.1781 42.5406 67.3726V21.2733ZM58.5 -2.86102e-06C26.1969 -2.86102e-06 0 26.197 0 58.5C0 90.8031 26.1969 117 58.5 117C90.803 117 117 90.8031 117 58.5C117 26.197 90.803 -2.86102e-06 58.5 -2.86102e-06Z" fill="#00A980"/>
<path d="M85.7514 91.6683C80.3584 94.6542 73.5639 97.0917 67.2752 97.4511C61.7969 97.7742 57.0072 96.3605 52.8451 93.082C48.7197 89.4379 48.0982 88.3655 46.1482 85.0199C45.8068 84.4351 45.4169 83.7707 44.9658 83.003C51.608 87.6343 58.8718 87.3601 61.6689 86.6469C66.5134 85.605 71.0594 84.0144 75.1727 81.5405L85.7514 91.6683Z" fill="#FFFFFD"/>
<path d="M58.7737 37.2252V81.5391C49.8037 81.5391 42.54 76.1766 42.54 67.3711V21.2718C51.51 21.2718 58.7737 28.4197 58.7737 37.2252Z" fill="#FFFFFD"/>
<circle cx="90" cy="90" r="27" fill="#3B55AF"/>
</g>
<defs>
<clipPath id="clip0_5375_6874">
<rect width="117" height="117" fill="white"/>
</clipPath>
</defs>
</svg>
