<svg width="180" height="162" viewBox="0 0 180 162" fill="none" xmlns="http://www.w3.org/2000/svg">
    <g clip-path="url(#clip0_586_3601)">
        <path d="M103.592 139.152L103.597 139.158H103.599C103.599 139.156 103.599 139.156 103.599 139.154C103.597 139.154 103.594 139.152 103.592 139.152Z" fill="#001929"/>
        <path d="M178.576 155.506C178.218 155.413 177.83 155.41 177.455 155.41C166.867 155.402 156.279 155.4 145.691 155.396H144.703V142.951C146.467 142.951 148.163 142.929 149.857 142.955C155.835 143.054 160.572 139.206 161.687 133.308C161.874 132.324 161.988 131.328 162.149 130.247C162.544 130.28 162.942 130.302 163.337 130.346C166.99 130.745 170.344 128.703 171.442 125.377C172.51 122.143 171.984 119.135 169.896 116.478C167.933 113.979 165.59 111.899 162.654 110.555C162.38 110.43 162.158 109.999 162.086 109.671C161.984 109.219 161.994 108.723 162.06 108.259C162.103 107.957 162.257 107.582 162.488 107.404C167.748 103.319 170.31 97.9117 170.342 91.2966C170.38 83.2221 170.363 75.1458 170.344 67.0713C170.343 66.1628 170.25 65.2448 170.093 64.3496C169.237 59.4947 166.905 55.4518 163.228 52.1982C161.333 50.5231 159.243 49.1395 156.768 48.443C156.418 48.3199 156.075 48.1269 155.715 48.089C153.514 47.8524 151.311 47.5269 149.102 47.4682C146.568 47.4019 144.028 47.6064 141.49 47.6442C140.271 47.6612 139.05 47.5609 137.831 47.5155H131.973C130.542 47.5023 129.113 47.4606 127.684 47.4833C126.168 47.5098 124.652 47.6253 123.136 47.6461C122.299 47.6594 121.462 47.559 120.626 47.5079C117.789 47.5098 114.953 47.5117 112.116 47.5117C111.613 47.5098 111.107 47.5079 110.604 47.506C109.406 47.5042 108.208 47.5023 107.011 47.5004H106.443C104.869 47.5136 103.292 47.5288 101.717 47.5439C99.0182 47.7086 96.4857 48.4448 94.1236 49.766C91.7671 50.8354 89.8573 52.501 88.1274 54.3767C85.2485 57.4978 83.1362 61.0354 82.4605 65.3092C82.3469 66.1704 82.2334 67.0316 82.1122 67.9534C81.7696 67.9534 81.4573 67.9515 81.1469 67.9534C74.2554 67.9553 67.3621 67.9571 60.4706 67.9628C55.1842 67.9685 49.8977 67.978 44.6113 67.9874C43.8239 67.9818 43.0346 67.9382 42.251 67.9837C41.2062 68.0461 40.2618 68.3395 39.8321 69.4486C40.0971 70.2019 40.54 70.9458 40.5911 71.7142C40.7141 73.5578 40.6479 75.4165 40.6725 77.2676C40.7009 79.5256 40.7539 81.7836 40.7785 84.0417C40.8107 86.8089 40.8012 89.5761 40.8504 92.3414C40.9261 96.4978 41.0624 100.652 41.1249 104.811C41.1495 106.476 41.0567 108.144 40.9999 109.811C40.9564 111.133 40.8845 112.452 40.8296 113.773C40.7501 115.681 40.6138 117.591 40.6138 119.498C40.6119 121.321 40.8239 123.146 40.8107 124.969C40.7936 127.013 40.5816 129.053 40.5419 131.099C40.5059 132.914 40.5703 134.733 40.6252 136.55C40.6895 138.691 40.8315 140.83 40.8655 142.969C40.8996 145.139 40.8788 147.312 40.8069 149.483C40.7861 150.119 40.5627 150.772 40.3167 151.368C40.2258 151.586 39.798 151.664 39.5236 151.806C39.5236 152.249 39.5255 152.692 39.5255 153.133C39.5141 153.572 39.4536 154.015 39.499 154.448C39.5785 155.199 39.2889 155.428 38.545 155.398C37.3564 155.351 36.164 155.413 34.9753 155.428C36.0883 155.51 37.2031 155.591 38.316 155.673C38.3179 155.709 38.3179 155.745 38.3198 155.779C37.4245 155.779 36.5198 155.71 35.6359 155.813C35.2592 155.856 34.8201 156.187 34.5892 156.513C34.0876 157.225 33.7015 158.016 33.2681 158.775C36.8605 158.782 40.4529 158.796 44.0435 158.796C88.5078 158.799 132.97 158.801 177.433 158.805C177.717 158.805 178.002 158.828 178.283 158.796C179.134 158.699 179.821 158.016 179.907 157.206C179.988 156.449 179.458 155.739 178.576 155.506ZM165.281 116.55C165.783 117.063 166.284 117.575 166.788 118.086C168.052 119.567 168.906 121.181 168.463 123.22C168.155 126.18 165.035 127.876 162.431 126.36C161.409 125.765 160.65 124.719 159.77 123.878C158.638 122.182 157.411 120.539 156.416 118.766C156.02 118.06 155.941 117.04 156.05 116.207C156.393 113.625 158.821 112.314 161.216 113.546C162.694 114.307 163.934 115.533 165.281 116.55ZM146.908 50.7313C149.556 50.8505 152.204 50.9698 154.852 51.089C156.308 51.7818 157.761 52.4764 159.217 53.171C159.472 53.3565 159.726 53.5401 159.98 53.7256C162.834 55.6657 164.825 58.2777 166.04 61.4972C166.354 62.7389 166.678 63.9767 166.975 65.2221C167.127 65.8524 166.833 66.1931 166.195 66.1969C163.059 66.2101 159.923 66.2272 156.787 66.195C156.541 66.1931 156.154 65.8751 156.077 65.6272C155.749 64.5843 155.515 63.5111 155.246 62.4493C154.366 59.7578 152.638 57.5603 151.071 55.2682C150.37 54.5811 149.668 53.8941 148.968 53.207C148.059 52.4499 147.151 51.6928 146.165 50.8713C146.424 50.8221 146.666 50.7767 146.908 50.7313ZM85.1577 69.6568C85.1917 67.5824 85.7274 65.5155 86.034 63.4448C87.2775 60.1477 89.2138 57.337 91.8599 55.0051C94.1747 52.9666 96.87 51.6985 99.834 50.9508C100.462 50.8676 101.091 50.7824 101.719 50.6991C101.971 50.7086 102.223 50.7275 102.474 50.7275C110.666 50.7275 118.86 50.7275 127.052 50.7237C129.825 50.7237 132.597 50.7105 135.368 50.7029C135.876 50.7067 136.383 50.7105 136.888 50.7142C137.56 50.8486 138.236 50.9565 138.9 51.1174C142.903 52.0846 146.076 54.3578 148.735 57.4297C148.854 57.5679 148.92 57.7534 149.011 57.9161C149.95 59.4303 150.891 60.9445 151.83 62.4587C152.717 64.5142 153.12 66.6871 153.132 68.9016C153.172 76.5635 153.181 84.2272 153.117 91.889C153.092 94.836 152.229 97.6013 150.711 100.145C147.563 105.451 143.178 108.935 136.809 109.21C132.472 109.397 128.125 109.35 123.783 109.361C121.233 109.369 118.686 109.24 116.138 109.249C112.016 109.261 107.893 109.372 103.771 109.365C102.298 109.363 100.813 109.227 99.357 108.998C94.6819 108.263 91.2504 105.615 88.6176 101.801C88.5476 101.701 88.5267 101.569 88.4832 101.451C87.2113 99.7382 86.2876 97.8644 85.8372 95.7691C85.5911 94.06 85.1539 92.3508 85.1349 90.6398C85.0592 83.6461 85.0422 76.6505 85.1577 69.6568ZM68.8062 124.35C68.8025 131.163 68.7968 137.975 68.793 144.789C68.7305 146.184 68.3974 146.51 67.0498 146.527C63.2189 146.572 59.3861 146.623 55.5532 146.673C54.0144 146.601 53.2782 145.817 53.2763 144.163C53.263 136.94 53.263 129.719 53.2592 122.497C53.2536 110.671 53.2536 98.8448 53.2327 87.019C53.2308 86.0215 53.4277 85.2038 54.4384 84.7893C54.8643 84.7212 55.292 84.5925 55.7179 84.5925C59.3425 84.5906 62.9652 84.6114 66.5898 84.6265C68.3596 84.6322 68.8195 85.0884 68.8195 86.8751C68.8157 99.3672 68.81 111.857 68.8062 124.35ZM84.9135 125.362C85.2958 126.363 86.0908 127.202 86.6624 128.137C86.8801 128.495 87.145 128.909 87.1469 129.301C87.164 134.464 87.1394 139.63 87.1242 144.793C87.0485 146.122 86.6548 146.51 85.328 146.516C82.0384 146.525 78.7469 146.523 75.4573 146.529C74.7513 146.529 74.0454 146.54 73.3394 146.546C72.5141 146.129 72.2037 145.429 72.2037 144.538C72.2056 127.904 72.2037 111.273 72.2037 94.6411C72.2037 93.742 72.4195 92.9471 73.3507 92.5571C73.3791 92.5401 73.4056 92.5098 73.4321 92.5098C76.3715 92.5193 79.311 92.5325 82.2485 92.5458L82.2504 92.5477C82.4151 93.8215 82.5797 95.0953 82.7444 96.3691C82.8258 96.9919 82.4681 97.1073 81.9457 97.1035C80.1514 97.0903 78.3551 97.1357 76.5627 97.0846C75.7129 97.06 75.0939 97.3098 74.6794 98.0499C74.3879 99.0474 75.058 99.9086 76.205 99.9275C78.3381 99.9616 80.4712 99.9521 82.6043 99.9597C83.4674 99.7761 83.9747 100.138 84.4176 100.9C85.0801 102.04 85.9299 103.068 86.6264 104.188C86.9066 104.64 87.1356 105.212 87.145 105.733C87.1942 108.723 87.2094 111.716 87.1375 114.706C87.1223 115.302 86.7835 115.959 86.422 116.464C84.4668 119.198 83.6832 122.139 84.9135 125.362ZM95.4447 124.584C95.4428 124.876 95.3406 125.222 95.1627 125.445C93.5785 127.452 90.4422 127.363 88.8826 125.286C88.6857 124.974 88.4908 124.662 88.2939 124.351C87.2889 122.264 87.8037 120.303 88.9999 118.539C90.4971 116.33 92.3785 114.469 94.7671 113.192C94.9242 113.107 95.1021 113.059 95.4561 112.921V115.251C95.4561 118.363 95.4655 121.473 95.4447 124.584ZM127.228 152.372H117.274V143.023H127.228V152.372ZM139.513 154.365C139.515 154.908 139.478 155.389 138.741 155.385C136.035 155.374 133.33 155.374 130.623 155.37C130.519 155.046 130.326 154.724 130.324 154.401C130.298 151.399 130.303 148.397 130.302 145.395C130.245 142.567 130.095 143.135 132.463 143.084C133.659 143.057 134.857 143.056 136.054 143.08C137.778 143.116 138.851 143.924 139.254 145.596C139.445 146.381 139.485 147.214 139.498 148.028C139.532 150.14 139.51 152.252 139.513 154.365ZM139.362 139.317C138.382 139.507 137.401 139.859 136.421 139.863C126.734 139.904 117.049 139.9 107.363 139.864C106.472 139.861 105.58 139.539 104.691 139.365C104.325 139.295 103.964 139.225 103.599 139.155C103.602 139.079 103.606 139.001 103.608 138.926C100.958 136.847 99.1621 134.268 98.8573 130.811C98.7987 130.316 98.6908 129.82 98.6889 129.324C98.6756 124.062 98.687 118.8 98.6643 113.538C98.6624 112.872 98.8062 112.582 99.5482 112.59C105.936 112.639 112.324 112.654 118.712 112.685C118.992 112.686 119.272 112.747 119.553 112.779C122.178 112.777 124.803 112.775 127.426 112.774C128.589 112.741 129.751 112.685 130.913 112.683C133.936 112.673 136.96 112.683 139.983 112.696C140.358 112.696 140.732 112.751 141.107 112.781C141.91 112.787 142.712 112.794 143.513 112.8C144.206 112.796 144.898 112.8 145.591 112.783C146.153 112.77 146.38 113.033 146.378 113.586C146.356 119.196 146.467 124.81 146.284 130.416C146.146 134.61 143.17 138.191 139.362 139.317Z" fill="#001929"/>
        <path d="M39.8324 69.4473C40.0974 70.2025 40.5403 70.9444 40.5914 71.7129C40.7163 73.5583 40.6482 75.4151 40.6728 77.2681C40.7012 79.5261 40.7542 81.7842 40.7788 84.0422C40.8091 86.8075 40.7996 89.5747 40.8507 92.34C40.9264 96.4965 41.0608 100.653 41.1232 104.809C41.1479 106.475 41.0551 108.144 41.0002 109.81C40.9567 111.131 40.8848 112.45 40.8299 113.772C40.7504 115.679 40.6141 117.589 40.6141 119.497C40.6122 121.32 40.8261 123.144 40.8109 124.967C40.7939 127.011 40.5819 129.052 40.5422 131.098C40.5062 132.915 40.5706 134.734 40.6255 136.551C40.6898 138.691 40.8318 140.83 40.8658 142.969C40.8999 145.14 40.8791 147.313 40.8072 149.482C40.7863 150.12 40.563 150.771 40.315 151.369C40.2242 151.587 39.7964 151.664 39.522 151.804C39.5163 146.859 39.5068 141.913 39.505 136.965C39.4993 115.348 39.4936 93.7312 39.5087 72.116C39.5125 71.2264 39.7207 70.3369 39.8324 69.4473ZM39.8513 127.454C39.821 127.458 39.7908 127.462 39.7586 127.467C39.7586 130.63 39.7586 133.793 39.7586 136.956C39.7889 136.956 39.8191 136.956 39.8513 136.954C39.8513 133.787 39.8513 130.621 39.8513 127.454Z" fill="#001929"/>
        <path d="M34.9757 155.429C36.0905 155.51 37.2034 155.592 38.3182 155.675C38.3201 155.711 38.3201 155.745 38.322 155.781C37.4268 155.781 36.522 155.711 35.6381 155.813C35.2615 155.857 34.8223 156.188 34.5914 156.515C34.0899 157.225 33.7037 158.016 33.2703 158.775C32.1384 158.643 31.4533 157.982 31.457 157.028C31.4608 156.112 32.1592 155.478 33.2854 155.414C33.8476 155.38 34.4116 155.421 34.9757 155.429Z" fill="#001929"/>
        <path d="M133.83 132.9C133.567 132.914 133.306 132.927 133.044 132.942C133.317 132.927 133.59 132.914 133.864 132.9H133.83Z" fill="#CAD1D8"/>
        <path d="M143.481 118.484C143.492 116.589 143.502 114.693 143.513 112.798C142.713 112.792 141.91 112.785 141.107 112.779C140.733 112.749 140.358 112.694 139.983 112.694C136.96 112.681 133.936 112.671 130.913 112.681C129.751 112.683 128.589 112.739 127.427 112.772C127.111 112.853 126.793 112.999 126.475 113.004C125.006 113.029 123.535 113.016 122.042 113.016C122.405 114.062 122.356 114.131 121.294 114.083C120.6 114.051 120.128 114.254 119.848 114.977C119.534 115.789 119.152 115.792 118.533 115.187C118.156 114.82 117.717 114.515 117.261 114.146C117.053 114.295 116.844 114.449 116.379 114.784C116.445 114.203 116.581 113.843 116.489 113.557C116.398 113.277 116.074 113.071 115.801 112.779C117.022 112.779 118.287 112.779 119.553 112.777C119.273 112.745 118.993 112.685 118.713 112.683C112.325 112.652 105.936 112.637 99.5485 112.588C98.8065 112.58 98.6627 112.87 98.6646 113.536C98.6873 118.798 98.6759 124.06 98.6892 129.322C98.6911 129.818 98.7989 130.314 98.8576 130.809C98.8557 125.232 98.8538 119.652 98.8519 114.072C98.8519 112.783 98.886 112.796 100.183 112.775C100.989 112.76 101.195 113.09 101.193 113.843C101.174 119.233 101.208 124.624 101.186 130.015C101.176 132.649 102.195 134.786 104.116 136.524C104.487 136.859 104.922 137.124 105.327 137.421C106.695 137.527 108.064 137.714 109.432 137.72C112.468 137.731 115.504 137.65 118.54 137.608C122.877 137.614 127.215 137.667 131.549 137.608C133.957 137.574 136.36 137.355 138.764 137.218C138.95 137.103 139.131 136.978 139.323 136.874C141.961 135.422 143.377 133.198 143.483 130.183C143.532 128.805 143.485 127.423 143.483 126.042C143.481 123.522 143.481 121.003 143.481 118.484ZM120.611 131.192C120.598 132.382 120.013 132.988 118.809 132.979C116.328 132.96 113.846 132.916 111.365 132.859C110.252 132.833 109.735 132.176 109.671 130.809C108.834 130.643 108.477 130.16 108.477 129.278C108.471 125.811 108.407 122.341 108.382 118.872C108.372 117.377 108.734 117.027 110.216 117.015C110.625 117.011 111.064 116.939 111.437 117.059C111.764 117.167 112.02 117.498 112.307 117.731C113.861 118.056 114.507 118.87 114.545 120.731C114.586 122.809 114.556 124.891 114.556 126.971C115.718 126.982 116.882 126.954 118.039 127.033C118.359 127.054 118.656 127.399 118.962 127.594C120.138 127.942 120.566 128.483 120.601 129.681C120.617 130.185 120.617 130.688 120.611 131.192ZM135.126 130.291C135.09 130.756 135.039 131.222 134.992 131.686C134.922 132.375 134.483 132.721 133.864 132.895C133.853 132.895 133.841 132.897 133.83 132.897H133.864C133.589 132.91 133.317 132.924 133.044 132.939C133.306 132.924 133.567 132.91 133.83 132.897C131.331 132.89 128.835 132.89 126.338 132.876C124.688 132.867 124.279 132.49 124.041 130.808C123.202 130.518 122.913 129.909 122.926 129.047C122.979 125.58 122.996 122.112 123.043 118.643C123.062 117.246 123.424 116.862 124.832 117.04C125.53 117.127 126.477 116.762 126.899 117.748C128.373 118.109 128.778 119.313 129.117 120.57C129.123 122.237 129.128 123.905 129.132 125.572C129.134 126.803 129.096 126.842 127.864 126.839C127.552 126.837 127.237 126.803 126.925 126.784C127.245 126.861 127.565 127.001 127.887 127.005C129.359 127.024 130.834 126.967 132.304 127.024C132.651 127.037 132.982 127.391 133.321 127.588C134.621 128.063 135.227 128.964 135.126 130.291Z" fill="#F4F4F4"/>
        <path d="M135.126 130.294C135.09 130.759 135.039 131.225 134.991 131.689C134.921 132.378 134.482 132.724 133.863 132.898C133.852 132.898 133.841 132.9 133.829 132.9C131.331 132.892 128.834 132.892 126.338 132.879C124.687 132.87 124.279 132.493 124.04 130.81C123.202 130.521 122.912 129.911 122.925 129.05C122.978 125.583 122.995 122.115 123.043 118.646C123.062 117.249 123.423 116.865 124.831 117.043C125.53 117.13 126.476 116.764 126.898 117.75C128.373 118.112 128.778 119.316 129.116 120.573C129.122 122.24 129.128 123.908 129.132 125.575C129.133 126.805 129.096 126.845 127.863 126.841C127.551 126.839 127.237 126.805 126.925 126.786C127.244 126.864 127.564 127.004 127.886 127.008C129.359 127.027 130.833 126.97 132.304 127.027C132.65 127.04 132.981 127.394 133.32 127.591C134.621 128.066 135.226 128.967 135.126 130.294Z" fill="#CAD1D8"/>
        <path d="M152.235 89.9161C152.144 83.0776 152.231 76.2391 152.192 69.4006C152.182 67.8013 151.948 66.2038 151.847 64.6044C151.804 63.8909 151.834 63.1735 151.83 62.4599C150.891 60.9457 149.951 59.4315 149.012 57.9174C148.781 58.0612 148.55 58.2051 148.278 58.3735C145.069 54.7792 141.458 52.0479 136.321 52.4303C135.377 52.436 134.432 52.4416 133.486 52.4454C133.357 52.4473 133.228 52.4473 133.098 52.4473C127.429 52.4454 121.76 52.4454 116.093 52.4435C114.954 52.4435 113.814 52.4454 112.675 52.4454C111.42 52.4473 110.163 52.4473 108.908 52.4473C106.107 52.4492 103.304 52.3943 100.505 52.4662C97.4649 52.5457 94.4289 53.0966 92.1804 55.0348C88.9116 57.855 86.5438 61.2903 85.8378 65.5868C85.4441 67.9906 85.2832 71.5565 85.2681 74.0095C85.2283 81.0051 84.7003 89.1515 86.0024 94.7672C86.0006 95.1022 85.8946 95.4372 85.8378 95.7703C86.2883 97.8656 87.2119 99.7394 88.4838 101.452C89.2807 102.211 90.0567 102.993 90.8782 103.724C93.8138 106.338 97.111 107.946 101.182 107.924C113.078 107.854 124.976 107.918 136.872 107.873C138.202 107.867 139.531 107.485 140.86 107.276C144.995 105.874 147.929 103.059 150.132 99.3836C151.785 96.4385 152.281 93.27 152.235 89.9161ZM148.401 91.5079C148.37 95.9161 146.341 99.3476 142.902 102.007C140.578 103.377 138.106 104.163 135.371 103.892C124.128 103.902 112.885 103.921 101.642 103.903C100.664 103.903 99.6832 103.659 98.7047 103.529C96.1192 103.001 94.0674 101.611 92.4662 99.5596C90.617 97.1899 89.7823 94.4814 89.7993 91.4606C89.839 84.395 89.839 77.3293 89.7974 70.2637C89.7766 66.359 91.1223 63.0637 93.8838 60.3268C94.1753 60.0391 94.4592 59.742 94.745 59.4505C95.7387 58.8013 96.6832 58.0555 97.7356 57.5218C99.581 56.5868 101.616 56.5546 103.637 56.5546C105.199 56.5603 106.758 56.5678 108.318 56.5735C116.258 56.5773 124.2 56.564 132.14 56.5981C134.989 56.6095 137.886 56.2309 140.631 57.3968C143.862 59.0587 146.362 61.4284 147.536 64.9375C147.988 66.2965 148.344 67.7596 148.359 69.1792C148.446 76.6215 148.45 84.0656 148.401 91.5079Z" fill="#CAD1D8"/>
        <path d="M58.614 152.35C53.4374 152.348 48.2626 152.348 43.0859 152.346C43.0897 150.739 43.0973 149.13 43.0973 147.523C43.1086 122.747 43.1181 97.9713 43.1314 73.1953C43.1314 71.7511 43.1427 71.7492 44.5206 71.7492C55.2601 71.7473 65.9976 71.7473 76.737 71.7473C78.1547 71.7473 79.5705 71.753 80.9881 71.7398C81.3762 71.736 81.8702 71.8344 81.8493 71.1776C81.9137 71.1757 81.978 71.1757 82.0443 71.1738C82.0386 71.8363 81.9762 72.5025 82.0443 73.1574C82.1389 74.0868 81.8607 74.3915 80.8651 74.3877C69.6828 74.3461 58.4986 74.3574 47.3162 74.3555C47.0323 74.3555 46.7446 74.3915 46.4664 74.3536C45.5427 74.2249 45.3042 74.6262 45.3061 75.5215C45.3402 87.9454 45.3421 100.369 45.3478 112.793C45.3534 124.398 45.3478 136.002 45.361 147.605C45.3629 149.299 45.1206 149.136 46.8525 149.138C63.0127 149.145 79.1749 149.149 95.3351 149.162C95.7629 149.162 96.1926 149.267 96.6203 149.323C79.5837 149.323 62.5452 149.323 45.5086 149.323C45.4992 149.473 45.4897 149.622 45.4803 149.772C45.8815 149.817 46.2828 149.901 46.684 149.901C63.0979 149.912 79.5137 149.918 95.9276 149.912C96.2872 149.912 96.6468 149.776 97.0045 149.704C97.6878 150.807 97.6197 151.237 96.6146 152.181C96.4197 152.236 96.2247 152.291 96.0298 152.344C95.6304 152.287 95.231 152.18 94.8298 152.18C83.1572 152.17 71.4828 152.17 59.8102 152.18C59.4127 152.181 59.0134 152.291 58.614 152.35Z" fill="#CAD1D8"/>
        <path d="M74.6795 98.0499C74.3881 99.0474 75.0581 99.9104 76.2051 99.9275C78.3382 99.9615 80.4713 99.9521 82.6045 99.9597C82.6139 100.652 82.6234 101.345 82.6329 102.038C82.1956 102.078 81.7603 102.144 81.3231 102.15C79.8751 102.167 78.4272 102.142 76.9792 102.168C76.0404 102.186 75.6032 102.666 75.6089 103.592C75.6127 104.491 76.1616 105.006 77.2272 105.027C79.0215 105.061 80.8139 105.053 82.6082 105.064C82.612 115.618 82.6177 126.174 82.6196 136.728C82.6196 138.982 82.807 138.719 80.5849 138.748C78.9231 138.768 77.2631 138.844 75.6032 138.895C75.2966 139.319 74.7988 139.713 74.7212 140.177C74.5622 141.129 75.306 141.755 76.4758 141.772C78.5161 141.803 80.5584 141.793 82.5988 141.801C82.6556 142.726 82.7123 143.652 82.7691 144.577C79.8278 144.596 76.8865 144.615 73.9433 144.632C73.9395 142.121 73.9319 139.609 73.9319 137.097C73.93 126.265 73.9205 115.431 73.9357 104.599C73.9395 102.178 74.0417 99.7552 74.0928 97.3344C74.1079 96.6246 74.1041 95.9149 74.1079 95.2051C74.2991 96.1533 74.4884 97.1016 74.6795 98.0499Z" fill="#CAD1D8"/>
        <path d="M54.4385 84.7888C54.8643 84.7206 55.2921 84.5919 55.718 84.5919C59.3426 84.59 62.9653 84.6108 66.5899 84.626C68.3596 84.6336 68.8195 85.0897 68.8195 86.8746C68.8177 99.3667 68.812 111.857 68.8063 124.349C68.8025 131.163 68.7987 137.975 68.7931 144.789C67.3432 144.723 65.8934 144.656 64.4454 144.59C64.4492 144.088 64.4208 143.585 64.4643 143.087C64.5382 142.235 64.2013 141.919 63.3344 141.94C61.3962 141.989 59.4561 141.969 57.5161 141.95C57.1224 141.946 56.7287 141.83 56.3331 141.766C59.2271 141.779 62.1211 141.798 65.017 141.804C66.0126 141.806 66.5293 141.38 66.5804 140.553C66.6372 139.652 66.0902 139.052 65.1079 138.942C64.8902 138.917 64.6688 138.91 64.4492 138.893C64.4587 136.184 64.4662 133.478 64.4757 130.769C66.0789 130.517 66.5161 130.19 66.5161 129.234C66.5161 128.358 65.9218 127.934 64.4814 127.784C64.4662 124.538 64.4416 121.292 64.4397 118.046C64.436 114.673 64.4416 111.299 64.4719 107.926C64.4776 107.197 64.2202 106.894 63.4801 106.926C62.5678 106.964 61.6536 106.951 60.7394 106.928C59.3918 106.894 58.0442 106.832 56.6965 106.781C59.4675 106.779 62.2404 106.782 65.0113 106.769C66.0353 106.765 66.5312 106.355 66.5804 105.529C66.6353 104.623 66.0845 104.011 65.1079 103.913C64.8259 103.885 64.5419 103.89 64.258 103.879C64.3186 103.637 64.4284 103.394 64.4303 103.152C64.4454 100.01 64.4435 96.8664 64.4454 93.7244C65.1268 93.6184 65.9331 93.8531 66.3192 92.9768C66.9079 91.6424 66.2322 90.855 64.4397 90.8039C64.436 89.7383 64.4341 88.6746 64.4303 87.609C64.4284 86.9503 64.4019 86.2897 64.4322 85.6329C64.4624 84.9837 64.1975 84.7471 63.552 84.7547C60.5199 84.7831 57.4782 84.7812 54.4385 84.7888Z" fill="#92716B"/>
        <path d="M54.4385 84.7881C57.4783 84.7805 60.5199 84.7824 63.5597 84.754C64.2051 84.7483 64.472 84.983 64.4398 85.6322C64.4076 86.289 64.436 86.9496 64.4379 87.6083C64.0158 87.6878 63.5937 87.8335 63.1717 87.8373C60.978 87.86 58.7824 87.8581 56.5887 87.8411C55.8978 87.8354 55.525 88.0625 55.5534 88.8158C55.5931 89.8814 55.5912 90.9471 55.6063 92.0146C55.6026 92.1887 55.5969 92.3647 55.5931 92.5389C55.5893 96.5212 55.5874 100.502 55.5836 104.484C55.5988 105.097 55.6139 105.71 55.6291 106.324C55.6026 106.795 55.5534 107.266 55.5515 107.738C55.5477 113.376 55.5496 119.016 55.5553 124.655C55.5571 125.883 55.578 127.112 55.5893 128.34C55.5799 128.98 55.5704 129.622 55.559 130.261C55.5325 131.321 55.4757 132.381 55.4871 133.441C55.5117 135.536 55.5723 137.63 55.6196 139.725C55.6064 140.151 55.5931 140.579 55.578 141.004C55.5231 142.21 55.4663 143.416 55.4114 144.623C55.4587 145.305 55.5041 145.986 55.5515 146.668C54.0127 146.598 53.2764 145.812 53.2726 144.158C53.2594 136.937 53.2612 129.714 53.2575 122.492C53.2518 110.666 53.2518 98.8398 53.231 87.0139C53.231 86.0202 53.4278 85.2026 54.4385 84.7881Z" fill="#F4F4F4"/>
        <path d="M82.6332 102.036C82.6237 101.344 82.6142 100.651 82.6048 99.9581C83.4698 99.7726 83.9751 100.134 84.418 100.899C85.0805 102.038 85.9303 103.066 86.6269 104.186C86.907 104.639 87.1379 105.21 87.1455 105.731C87.1947 108.721 87.2098 111.716 87.1379 114.704C87.1228 115.299 86.784 115.957 86.4224 116.463C84.4691 119.196 83.6836 122.137 84.9139 125.361C85.2963 126.362 86.0912 127.2 86.6628 128.135C86.8805 128.493 87.1455 128.909 87.1474 129.299C87.1644 134.463 87.1398 139.628 87.1246 144.793C85.6729 144.721 84.2212 144.648 82.7694 144.576C82.7127 143.65 82.6559 142.725 82.601 141.801C83.0363 141.759 83.483 141.769 83.9032 141.667C84.5789 141.502 85.0407 141.057 84.9802 140.328C84.9158 139.571 84.471 139.055 83.678 138.945C83.3392 138.897 82.9909 138.924 82.6464 138.922C80.2994 138.913 77.9505 138.905 75.6035 138.896C77.2635 138.844 78.9253 138.771 80.5852 138.748C82.8073 138.72 82.6199 138.983 82.6199 136.728C82.6161 126.174 82.6123 115.619 82.6086 105.065C83.006 104.98 83.4187 104.938 83.7972 104.802C84.4786 104.559 84.7625 104.026 84.7038 103.318C84.6414 102.572 84.1474 102.224 83.4792 102.084C83.2048 102.027 82.9152 102.05 82.6332 102.036Z" fill="#92716B"/>
        <path d="M149.011 57.9163C148.78 58.0602 148.55 58.204 148.277 58.3725C145.069 54.7763 141.457 52.045 136.32 52.4274C135.376 52.433 134.43 52.4387 133.485 52.4444C133.356 52.4444 133.226 52.4444 133.097 52.4463C127.428 52.4444 121.76 52.4425 116.091 52.4425C114.951 52.4444 113.812 52.4444 112.674 52.4463C111.42 52.4463 110.163 52.4482 108.906 52.4482C106.105 52.4501 103.302 52.3933 100.502 52.4671C97.4624 52.5466 94.9508 53.9434 92.7022 55.8835C89.4334 58.7037 87.0656 62.139 86.3596 66.4356C85.964 68.8393 86.0473 71.3302 86.0322 73.7832C85.9905 80.7788 86.0132 87.7725 86 94.7681C86 95.1031 85.8921 95.4362 85.8353 95.7712C85.5893 94.0621 85.152 92.3529 85.1331 90.64C85.0574 83.6463 85.0404 76.6507 85.1558 69.6589C85.1899 67.5845 85.7274 65.5176 86.034 63.4469C87.2776 60.1498 89.2139 57.339 91.8599 55.0072C94.1747 52.9668 96.87 51.7005 99.8322 50.9529C100.461 50.8696 101.089 50.7863 101.717 50.7012C101.969 50.7106 102.221 50.7296 102.473 50.7296C110.666 50.7296 118.858 50.7296 127.052 50.7258C129.825 50.7239 132.596 50.7125 135.368 50.705C135.876 50.7087 136.381 50.7125 136.888 50.7163C137.558 50.8488 138.236 50.9586 138.9 51.1176C142.903 52.0867 146.076 54.3599 148.735 57.4299C148.854 57.5681 148.92 57.7535 149.011 57.9163Z" fill="#F4F4F4"/>
        <path d="M74.1081 95.2041C74.1044 95.9139 74.1082 96.6237 74.093 97.3334C74.0419 99.7543 73.9397 102.177 73.9359 104.598C73.9189 115.43 73.9283 126.264 73.9321 137.096C73.9321 139.608 73.9397 142.12 73.9435 144.629C73.9548 145.023 73.9018 145.434 73.9946 145.807C74.1498 146.435 73.8583 146.568 73.3378 146.545C72.5126 146.128 72.2021 145.428 72.2021 144.535C72.204 127.903 72.2022 111.272 72.204 94.6382C72.204 93.7391 72.4179 92.9442 73.351 92.5524C76.317 92.5486 79.2829 92.5448 82.2488 92.541L82.2507 92.5429C82.2451 93.1088 82.2053 93.6786 82.2451 94.2407C82.2905 94.8596 82.069 95.0716 81.4425 95.0546C79.934 95.0111 78.4236 95.0073 76.9151 95.0319C75.9801 95.0508 75.0451 95.1454 74.1081 95.2041Z" fill="#96A8BA"/>
        <path d="M127.228 152.37C123.857 152.37 120.596 152.37 117.276 152.37C117.276 149.228 117.276 146.156 117.276 143.021C120.592 143.021 123.9 143.021 127.228 143.021C127.228 146.16 127.228 149.203 127.228 152.37Z" fill="#FEFEFE"/>
        <path d="M140.86 107.277C144.995 105.875 147.929 103.06 150.13 99.3828C150.323 99.6383 150.516 99.892 150.711 100.147C147.562 105.453 143.176 108.935 136.809 109.21C132.473 109.397 128.125 109.35 123.781 109.361C121.234 109.367 118.684 109.24 116.137 109.248C112.014 109.261 107.892 109.371 103.769 109.363C102.297 109.361 100.811 109.225 99.3555 108.998C94.6804 108.262 91.2489 105.616 88.6161 101.802C88.5479 101.701 88.5252 101.569 88.4817 101.452C89.2785 102.211 90.0546 102.992 90.876 103.723C93.8117 106.337 97.1107 107.946 101.18 107.923C113.076 107.855 124.974 107.917 136.872 107.872C138.202 107.868 139.531 107.486 140.86 107.277Z" fill="#445A71"/>
        <path d="M159.98 53.7246C162.834 55.6647 164.825 58.2767 166.041 61.4943C165.634 61.7593 165.253 62.1833 164.816 62.2514C164.027 62.3763 163.205 62.2798 162.397 62.295C160.014 62.3404 157.629 62.3953 155.246 62.4464C154.366 59.7549 152.638 57.5574 151.073 55.2653C151.512 55.2596 151.953 55.2445 152.392 55.2483C154.434 55.2634 156.475 55.2975 158.517 55.2956C159.719 55.2975 160.203 54.7505 159.98 53.7246Z" fill="#CAD1D8"/>
        <path d="M103.599 139.154C103.599 139.156 103.599 139.156 103.599 139.158L103.592 139.152C103.594 139.152 103.597 139.154 103.599 139.154Z" fill="#445A71"/>
        <path d="M146.284 130.416C146.146 134.611 143.171 138.192 139.363 139.318C138.382 139.507 137.402 139.859 136.421 139.863C126.734 139.905 117.049 139.901 107.364 139.865C106.472 139.861 105.581 139.54 104.691 139.365C104.326 139.295 103.964 139.225 103.599 139.155C103.603 139.08 103.607 139.002 103.609 138.926C104.182 138.427 104.756 137.925 105.327 137.423C106.696 137.529 108.064 137.717 109.433 137.722C112.469 137.734 115.504 137.652 118.54 137.611C122.877 137.616 127.215 137.669 131.549 137.611C133.957 137.577 136.361 137.357 138.764 137.221C138.95 137.105 139.132 136.981 139.323 136.876C141.961 135.425 143.377 133.201 143.483 130.186C143.532 128.808 143.485 127.426 143.483 126.044C143.481 123.525 143.481 121.006 143.481 118.487C143.493 116.592 143.502 114.695 143.513 112.801C144.206 112.797 144.899 112.801 145.592 112.784C146.154 112.77 146.381 113.034 146.379 113.586C146.356 119.196 146.468 124.81 146.284 130.416Z" fill="#445A71"/>
        <path d="M105.327 137.427C104.753 137.928 104.182 138.428 103.608 138.93C100.958 136.849 98.8952 133.918 98.706 130.321C98.7041 124.742 98.6132 119.245 98.6113 113.665C98.6113 112.378 98.8006 112.624 100.126 112.624C100.93 112.611 101.167 112.908 101.191 113.847C101.172 119.237 101.206 124.628 101.185 130.02C101.174 132.653 102.194 134.79 104.115 136.53C104.486 136.865 104.922 137.13 105.327 137.427Z" fill="#96A8BA"/>
        <path d="M105.541 140.785C106.913 141.68 108.285 142.577 109.659 143.472C109.599 145.066 109.508 146.658 109.485 148.251C109.451 150.627 109.468 153.002 109.462 155.378C107.579 155.381 105.696 155.351 103.814 155.406C103.014 155.429 102.755 155.139 102.817 154.374C102.866 153.782 102.819 153.182 102.813 152.584C102.815 151.494 102.817 150.403 102.817 149.311C102.826 146.203 102.832 143.096 102.857 139.99C102.859 139.636 102.976 139.282 103.04 138.928C103.035 139.969 103.027 141.008 103.025 142.049C103.02 146.052 103.008 150.055 103.02 154.058C103.021 154.41 103.126 155.041 103.269 155.067C103.903 155.186 104.591 155.219 105.213 155.08C105.391 155.041 105.507 154.331 105.508 153.926C105.537 149.546 105.535 145.164 105.541 140.785Z" fill="#CAD1D8"/>
        <path d="M159.77 123.876C158.636 122.18 157.412 120.538 156.416 118.764C156.02 118.058 155.939 117.038 156.051 116.207C156.393 113.625 158.822 112.314 161.216 113.546C162.694 114.307 163.934 115.533 165.282 116.55C164.744 116.922 164.191 117.274 163.671 117.67C162.552 118.518 161.426 119.366 160.915 120.759C160.65 121.083 160.385 121.408 160.12 121.732C160.003 122.445 159.887 123.161 159.77 123.876Z" fill="#CAD1D8"/>
        <path d="M155.246 62.4501C157.629 62.399 160.013 62.3441 162.396 62.2987C163.205 62.2835 164.028 62.3801 164.815 62.2551C165.253 62.1851 165.633 61.7611 166.04 61.498C166.352 62.7397 166.678 63.9775 166.975 65.223C167.126 65.8533 166.833 66.1939 166.195 66.1977C163.059 66.211 159.923 66.228 156.786 66.1958C156.54 66.1939 156.154 65.876 156.077 65.628C155.749 64.5851 155.514 63.5119 155.246 62.4501Z" fill="#445A71"/>
        <path d="M130.302 145.397C130.245 142.569 130.098 143.137 132.466 143.086C133.662 143.059 134.86 143.057 136.056 143.082C137.78 143.118 138.854 143.926 139.257 145.597C139.446 146.383 139.488 147.216 139.501 148.029C139.533 150.142 139.512 152.254 139.516 154.364C139.518 154.908 139.478 155.388 138.744 155.385C136.037 155.373 133.331 155.373 130.624 155.369C131.398 155.322 132.172 155.275 132.946 155.228C133.953 155.228 134.96 155.188 135.963 155.237C136.775 155.277 137.099 154.987 137.073 154.158C136.991 151.518 136.944 148.875 136.912 146.233C136.9 145.397 136.484 145.01 135.702 144.997C134.76 144.982 133.817 145.016 132.874 145.028C132.403 145.035 131.928 144.999 131.464 145.062C131.069 145.116 130.688 145.281 130.302 145.397Z" fill="#445A71"/>
        <path d="M105.541 140.783C105.535 145.164 105.537 149.546 105.511 153.926C105.509 154.329 105.393 155.041 105.216 155.08C104.591 155.217 103.906 155.185 103.272 155.067C103.128 155.041 103.022 154.41 103.022 154.058C103.011 150.055 103.02 146.052 103.028 142.049C103.029 141.008 103.037 139.969 103.043 138.928C103.23 139.005 103.416 139.081 103.603 139.159C103.603 139.159 103.595 139.151 103.595 139.153C104.241 139.694 104.892 140.238 105.541 140.783Z" fill="#F4F4F4"/>
        <path d="M166.788 118.088C168.053 119.568 168.906 121.183 168.463 123.219C167.939 123.832 167.51 124.582 166.868 125.03C165.452 126.02 163.951 125.729 162.477 125.017C161.61 124.599 160.955 124.131 161.462 123.036C161.653 122.78 161.845 122.523 162.036 122.267C163.207 120.679 164.587 119.333 166.393 118.47C166.55 118.396 166.658 118.218 166.788 118.088Z" fill="#CAD1D8"/>
        <path d="M150.711 100.141C150.518 99.8859 150.325 99.6323 150.13 99.3768C151.785 96.4336 152.281 93.2651 152.235 89.9093C152.144 83.0727 152.231 76.2323 152.192 69.3938C152.182 67.7945 151.947 66.197 151.847 64.5976C151.802 63.8859 151.832 63.1686 151.83 62.4531C152.718 64.5086 153.121 66.6834 153.132 68.896C153.172 76.5579 153.18 84.2216 153.117 91.8834C153.093 94.8323 152.229 97.5976 150.711 100.141Z" fill="#445A71"/>
        <path d="M109.461 155.376C109.467 153.001 109.45 150.625 109.484 148.25C109.506 146.656 109.597 145.063 109.658 143.471C110.303 143.779 110.998 144.016 111.573 144.423C111.87 144.633 112.105 145.144 112.111 145.522C112.151 148.515 112.118 151.507 112.132 154.498C112.133 155.13 111.916 155.437 111.255 155.401C110.657 155.367 110.059 155.382 109.461 155.376Z" fill="#445A71"/>
        <path d="M97.0067 149.711C96.6471 149.782 96.2875 149.919 95.9297 149.919C79.5159 149.924 63.1001 149.919 46.6862 149.907C46.2849 149.907 45.8837 149.824 45.4824 149.779C45.4919 149.629 45.5014 149.48 45.5108 149.33C62.5474 149.33 79.5859 149.33 96.6225 149.33C96.6698 149.345 96.719 149.357 96.7682 149.366C96.8477 149.48 96.9272 149.595 97.0067 149.711Z" fill="#E9E9E9"/>
        <path d="M88.2941 124.35C87.2871 122.263 87.8039 120.302 88.9982 118.538C90.4953 116.329 92.3767 114.468 94.7654 113.191C94.9225 113.105 95.1004 113.058 95.4543 112.922C95.4543 113.774 95.4543 114.512 95.4543 115.252C95.4013 115.328 95.3483 115.403 95.2972 115.479C94.2146 116.342 93.1319 117.207 92.0058 118.104C92.5244 118.649 92.8878 119.032 93.2531 119.414C92.8575 119.933 92.4619 120.451 92.0663 120.97C91.7957 120.711 91.4909 120.476 91.2581 120.184C90.7168 119.507 90.2304 119.664 89.8859 120.311C89.4222 121.182 89.0304 122.094 88.6537 123.006C88.4796 123.43 88.4114 123.9 88.2941 124.35Z" fill="#F4F4F4"/>
        <path d="M130.302 145.392C130.69 145.277 131.07 145.11 131.466 145.057C131.93 144.995 132.405 145.031 132.876 145.023C132.901 148.422 132.923 151.824 132.948 155.223C132.174 155.27 131.4 155.318 130.625 155.365C130.521 155.041 130.328 154.72 130.326 154.396C130.298 151.396 130.304 148.394 130.302 145.392Z" fill="#F4F4F4"/>
        <path d="M55.5531 146.672C55.5058 145.99 55.4604 145.309 55.4131 144.628C58.4225 144.614 61.4339 144.603 64.4434 144.59C65.8932 144.656 67.3431 144.722 68.791 144.789C68.7304 146.184 68.3973 146.509 67.0497 146.526C63.2188 146.572 59.386 146.623 55.5531 146.672Z" fill="#445A71"/>
        <path d="M88.2939 124.352C88.4113 123.902 88.4794 123.433 88.6536 123.007C89.0302 122.094 89.422 121.182 89.8857 120.311C90.2302 119.662 90.7167 119.505 91.258 120.185C91.4908 120.476 91.7936 120.709 92.0662 120.97C92.5753 121.536 93.0845 122.102 93.5936 122.668C93.6769 122.903 93.7432 123.145 93.8492 123.37C94.3791 124.498 94.345 124.684 93.287 125.306C91.8239 126.166 90.3476 125.969 88.8807 125.291C88.6858 124.975 88.4908 124.663 88.2939 124.352Z" fill="#CAD1D8"/>
        <path d="M73.3394 146.543C73.8599 146.567 74.1513 146.433 73.9961 145.804C73.9034 145.432 73.9564 145.021 73.945 144.627C76.8864 144.608 79.8296 144.591 82.7709 144.572C84.2226 144.644 85.6744 144.718 87.1261 144.79C87.0504 146.119 86.6567 146.507 85.3299 146.51C82.0403 146.52 78.7488 146.518 75.4592 146.524C74.7513 146.526 74.0453 146.537 73.3394 146.543Z" fill="#445A71"/>
        <path d="M146.908 50.7305C149.556 50.8497 152.204 50.9671 154.85 51.0863C156.306 51.7809 157.761 52.4737 159.217 53.1683C155.944 53.1418 152.674 53.1115 149.401 53.0907C149.257 53.0907 149.112 53.1645 148.966 53.2043C148.057 52.4472 147.149 51.6901 146.165 50.8686C146.424 50.8213 146.666 50.7759 146.908 50.7305Z" fill="#CAD1D8"/>
        <path d="M148.968 53.2074C149.114 53.1676 149.258 53.0919 149.404 53.0938C152.676 53.1146 155.947 53.143 159.219 53.1714C159.473 53.3569 159.729 53.5424 159.982 53.726C160.205 54.7518 159.721 55.2988 158.517 55.2988C156.475 55.3007 154.435 55.2667 152.392 55.2515C151.953 55.2477 151.514 55.2629 151.073 55.2685C150.371 54.5815 149.669 53.8944 148.968 53.2074Z" fill="#F4F4F4"/>
        <path d="M74.1084 95.2082C75.0434 95.1495 75.9784 95.0549 76.9153 95.0397C78.4239 95.0151 79.9343 95.0189 81.4428 95.0624C82.0693 95.0814 82.2907 94.8694 82.2453 94.2486C82.2037 93.6864 82.2453 93.1167 82.251 92.5508C82.4157 93.8246 82.5803 95.0984 82.745 96.3722C82.8264 96.9949 82.4687 97.1085 81.9463 97.1047C80.1519 97.0915 78.3557 97.1388 76.5633 97.0858C75.7135 97.0612 75.0945 97.311 74.68 98.0511C74.4888 97.1047 74.2996 96.1565 74.1084 95.2082Z" fill="#CAD1D8"/>
        <path d="M97.0062 149.71C96.9267 149.595 96.8472 149.481 96.7696 149.366C98.7854 149.348 100.801 149.331 102.817 149.312C102.815 150.403 102.813 151.493 102.813 152.585C102.766 152.57 102.718 152.557 102.669 152.549C101.238 152.49 99.8074 152.441 98.3765 152.365C97.7879 152.335 97.203 152.248 96.6182 152.188C97.6213 151.243 97.6895 150.813 97.0062 149.71Z" fill="#445A71"/>
        <path d="M166.788 118.088C166.657 118.218 166.549 118.396 166.392 118.47C164.587 119.333 163.207 120.679 162.035 122.267C161.66 121.763 161.288 121.262 160.913 120.758C161.424 119.365 162.55 118.517 163.669 117.669C164.189 117.274 164.742 116.922 165.279 116.549C165.783 117.064 166.284 117.577 166.788 118.088Z" fill="#F4F4F4"/>
        <path d="M161.462 123.035C160.955 124.131 161.61 124.598 162.477 125.016C163.951 125.728 165.452 126.019 166.868 125.03C167.508 124.581 167.937 123.831 168.463 123.218C168.155 126.178 165.036 127.874 162.431 126.358C161.409 125.764 160.65 124.717 159.772 123.877C159.887 123.161 160.005 122.448 160.12 121.732C160.567 122.166 161.016 122.601 161.462 123.035Z" fill="#445A71"/>
        <path d="M88.8828 125.287C90.3497 125.965 91.826 126.164 93.2891 125.302C94.3472 124.68 94.3812 124.494 93.8513 123.366C93.7453 123.141 93.679 122.899 93.5958 122.664C94.0973 122.344 94.597 122.024 95.0986 121.706C95.1573 121.341 95.2633 120.976 95.267 120.61C95.2935 118.899 95.2916 117.188 95.2992 115.477C95.3522 115.401 95.4052 115.326 95.4563 115.25C95.4563 118.362 95.4658 121.473 95.445 124.585C95.4431 124.875 95.3409 125.221 95.1629 125.446C93.5787 127.453 90.4424 127.364 88.8828 125.287Z" fill="#445A71"/>
        <path d="M129.52 112.685C129.13 112.797 128.744 112.996 128.352 113.003C126.556 113.037 124.758 113.018 122.931 113.018C123.376 114.453 123.317 114.549 122.017 114.483C121.167 114.44 120.59 114.716 120.247 115.71C119.863 116.821 119.397 116.826 118.638 115.996C118.177 115.492 117.641 115.074 117.083 114.568C116.829 114.775 116.572 114.983 116.006 115.445C116.083 114.648 116.252 114.154 116.138 113.76C116.026 113.376 115.672 113.073 115.339 112.672C116.831 112.672 118.339 112.672 119.886 112.693C123.098 112.691 126.308 112.687 129.52 112.685Z" fill="#F4F4F4"/>
        <path d="M82.2489 92.5457C79.2829 92.5495 76.317 92.5533 73.3511 92.5571C73.3776 92.54 73.406 92.5098 73.4325 92.5098C76.3719 92.5192 79.3113 92.5325 82.2489 92.5457Z" fill="#CAD1D8"/>
        <path d="M81.851 71.1795C81.8718 71.8363 81.3778 71.7379 80.9898 71.7417C79.5722 71.7549 78.1564 71.7492 76.7387 71.7492C65.9993 71.7492 55.2617 71.7511 44.5223 71.7511C43.1444 71.7511 43.133 71.753 43.133 73.1972C43.1198 97.9732 43.1103 122.749 43.099 147.525C43.099 149.132 43.0914 150.741 43.0876 152.348C42.2851 152.486 42.5141 151.884 42.5122 151.504C42.4952 144.945 42.4819 138.387 42.4819 131.829C42.4819 112.154 42.4895 92.4805 42.4933 72.8054C42.4933 72.3057 42.4933 71.8079 42.4933 71.2722C42.7545 71.2287 42.9324 71.1738 43.1103 71.1738C56.0226 71.1738 68.9368 71.1776 81.851 71.1795Z" fill="#E9E9E9"/>
        <path d="M42.1001 135.842C42.1001 114.685 42.1001 93.5262 42.1001 72.3691C42.1588 72.3691 42.2193 72.3691 42.278 72.3691C42.278 93.5262 42.278 114.685 42.278 135.842C42.2193 135.842 42.1588 135.842 42.1001 135.842Z" fill="#001929"/>
        <path d="M58.6138 152.357C59.0131 152.298 59.4125 152.187 59.8119 152.187C71.4844 152.177 83.1589 152.177 94.8314 152.187C95.2308 152.187 95.6302 152.295 96.0314 152.351C93.3551 152.367 90.6788 152.395 88.0024 152.395C78.6466 152.399 69.2907 152.395 59.9368 152.391C59.4939 152.393 59.0548 152.37 58.6138 152.357Z" fill="#96A8BA"/>
        <path d="M39.8515 127.457C39.8515 130.624 39.8515 133.79 39.8515 136.957C39.8212 136.957 39.791 136.957 39.7588 136.959C39.7588 133.796 39.7588 130.633 39.7588 127.47C39.791 127.465 39.8212 127.461 39.8515 127.457Z" fill="#445A71"/>
        <path d="M133.864 132.9C133.59 132.914 133.317 132.927 133.044 132.942C133.306 132.927 133.567 132.914 133.83 132.9H133.864Z" fill="#CAD1D8"/>
        <path d="M126.925 126.786C127.247 126.863 127.567 127.003 127.889 127.007C129.361 127.026 130.836 126.969 132.306 127.026C132.653 127.039 132.984 127.393 133.323 127.59C133.311 128.218 133.306 128.845 133.285 129.473C133.247 130.59 133.046 130.792 131.949 130.796C129.314 130.806 126.679 130.806 124.044 130.808C123.206 130.518 122.916 129.909 122.93 129.047C122.983 125.58 123 122.11 123.047 118.643C123.066 117.246 123.429 116.862 124.836 117.038C125.534 117.125 126.48 116.762 126.903 117.746C126.901 118.304 126.901 118.864 126.899 119.423C126.899 121.762 126.899 124.102 126.901 126.441C126.906 126.558 126.916 126.672 126.925 126.786Z" fill="#96A8BA"/>
        <path d="M114.556 126.973C115.718 126.984 116.88 126.956 118.039 127.035C118.359 127.058 118.656 127.4 118.962 127.597C118.968 128.226 118.97 128.856 118.981 129.484C119 130.612 118.82 130.807 117.69 130.809C115.018 130.815 112.345 130.813 109.673 130.813C108.836 130.645 108.478 130.162 108.477 129.282C108.471 125.812 108.408 122.345 108.384 118.875C108.372 117.38 108.736 117.03 110.218 117.017C110.627 117.013 111.066 116.941 111.439 117.062C111.766 117.168 112.022 117.501 112.309 117.732C112.309 120.781 112.309 123.829 112.309 126.973C113.125 126.973 113.841 126.973 114.556 126.973Z" fill="#96A8BA"/>
        <path d="M109.67 130.811C112.343 130.811 115.016 130.813 117.688 130.808C118.818 130.806 119 130.611 118.979 129.483C118.968 128.854 118.966 128.226 118.96 127.596C120.134 127.944 120.563 128.483 120.597 129.683C120.612 130.187 120.612 130.69 120.607 131.194C120.593 132.382 120.009 132.99 118.805 132.981C116.323 132.962 113.84 132.918 111.359 132.859C110.251 132.835 109.735 132.178 109.67 130.811Z" fill="#001929"/>
        <path d="M124.04 130.813C126.675 130.81 129.309 130.81 131.944 130.802C133.042 130.798 133.243 130.596 133.28 129.479C133.301 128.852 133.307 128.224 133.318 127.596C134.619 128.071 135.224 128.97 135.124 130.299C135.088 130.764 135.037 131.23 134.99 131.693C134.92 132.382 134.48 132.727 133.861 132.903C131.354 132.897 128.844 132.897 126.336 132.882C124.687 132.873 124.279 132.496 124.04 130.813Z" fill="#001929"/>
        <path d="M114.556 126.971C113.841 126.971 113.125 126.971 112.306 126.971C112.306 123.827 112.306 120.778 112.306 117.73C113.862 118.058 114.505 118.87 114.543 120.73C114.587 122.809 114.556 124.891 114.556 126.971Z" fill="#001929"/>
        <path d="M126.895 119.429C126.896 118.871 126.896 118.31 126.898 117.752C128.335 118.106 128.757 119.259 129.09 120.479C129.107 120.542 129.117 120.606 129.117 120.672C129.122 122.308 129.128 123.943 129.13 125.577C129.132 126.269 129.081 126.712 129.081 127.011C129.081 127.011 128.445 127.011 127.905 127.009C127.629 127.009 127.322 126.937 127.036 126.831C126.989 126.811 126.925 126.788 126.925 126.788C126.902 126.754 126.896 126.68 126.896 126.627C126.896 124.227 126.895 121.827 126.895 119.429Z" fill="#001929"/>
        <path d="M130.154 116.582C130.82 116.711 131.486 116.839 132.325 117.002C131.942 117.224 131.734 117.345 131.403 117.536C132.062 117.824 132.563 118.147 132.961 117.356C134.479 118.306 132.614 119.041 132.809 119.936C132.255 119.079 130.822 118.98 130.954 117.545C130.975 117.326 130.434 117.053 130.152 116.805C130.152 116.732 130.152 116.656 130.154 116.582Z" fill="#F4F4F4"/>
        <path d="M128.225 112.904C129.637 112.904 131.051 112.904 132.463 112.904C132.465 112.936 132.469 112.967 132.471 112.999C131.935 112.999 131.396 112.954 130.868 113.01C130.232 113.078 129.609 113.256 128.973 113.342C128.719 113.376 128.449 113.287 128.188 113.254C128.201 113.137 128.212 113.02 128.225 112.904Z" fill="#F4F4F4"/>
        <path d="M137.331 119.498C137.646 119.612 138.058 119.642 138.246 119.861C138.412 120.058 138.331 120.465 138.359 120.781C138.272 120.798 138.185 120.814 138.096 120.831C137.805 120.478 137.511 120.125 137.22 119.772C137.256 119.682 137.294 119.589 137.331 119.498Z" fill="#F4F4F4"/>
        <path d="M141.266 122.634C140.958 122.607 140.579 122.681 140.364 122.526C140.131 122.359 140.051 121.979 139.906 121.691C139.972 121.65 140.036 121.608 140.102 121.566C140.475 121.826 140.848 122.083 141.223 122.342C141.236 122.441 141.251 122.537 141.266 122.634Z" fill="#F4F4F4"/>
        <path d="M135.371 103.89C124.128 103.899 112.885 103.918 101.642 103.901C100.662 103.899 99.6832 103.655 98.7028 103.525C99.0927 103.489 99.4826 103.453 99.7703 103.428C98.7368 102.72 97.5766 102.042 96.5545 101.2C93.5734 98.7415 91.7791 95.7378 91.8491 91.6684C91.9703 84.6387 91.887 77.6071 91.8832 70.5756C91.8813 66.8999 93.0624 63.7447 95.8334 61.2311C97.7602 59.4841 99.9709 58.4942 102.579 58.4923C113.635 58.4848 124.692 58.4696 135.748 58.5226C136.98 58.5283 138.282 58.7668 139.429 59.2116C143.247 60.6974 146.474 65.1964 146.383 69.5706C146.233 76.8179 146.3 84.069 146.373 91.3182C146.394 93.2829 146.023 95.0545 145.018 96.7239C143.326 99.5346 141.078 101.679 137.945 102.815C137.072 103.131 136.228 103.528 135.371 103.89ZM125.877 87.1958C125.869 90.3018 128.169 92.8286 131.033 92.8627C133.944 92.8967 136.433 90.334 136.437 87.298C136.442 84.245 134.072 81.6576 131.239 81.6236C128.302 81.5914 125.884 84.103 125.877 87.1958ZM109.092 87.2658C109.103 84.1523 106.713 81.5989 103.802 81.6122C100.906 81.6254 98.5457 84.1106 98.5211 87.1731C98.4965 90.1996 100.946 92.8229 103.821 92.8513C106.649 92.8778 109.083 90.2999 109.092 87.2658ZM141.774 69.775C141.742 69.775 141.71 69.775 141.678 69.775C141.678 68.4236 141.77 67.0627 141.649 65.7207C141.545 64.5718 140.78 63.809 139.792 63.7712C137.593 63.6841 135.39 63.6387 133.189 63.6803C132.064 63.7012 131.506 64.3295 131.531 65.2229C131.555 66.1049 132.148 66.5838 133.319 66.6008C134.797 66.6236 136.279 66.6444 137.758 66.5933C138.643 66.563 139.001 66.8507 138.971 67.7743C138.914 69.5062 138.943 71.24 138.952 72.9718C138.96 74.1472 139.421 74.7567 140.286 74.787C141.193 74.8172 141.746 74.1642 141.766 72.9851C141.789 71.9176 141.774 70.8463 141.774 69.775ZM117.505 92.8078C117.505 92.804 117.505 92.8002 117.505 92.7945C118.293 92.7945 119.082 92.8343 119.866 92.7832C120.723 92.7283 121.338 92.0658 121.374 91.2576C121.41 90.4551 120.835 89.6639 119.981 89.6223C118.38 89.5466 116.769 89.539 115.17 89.6185C114.216 89.6658 113.733 90.3302 113.784 91.2008C113.837 92.0961 114.439 92.7472 115.332 92.7964C116.055 92.84 116.78 92.8078 117.505 92.8078Z" fill="#F4F4F4"/>
        <path d="M135.37 103.893C136.228 103.531 137.072 103.134 137.946 102.816C141.081 101.68 143.327 99.5356 145.019 96.7248C146.024 95.0554 146.395 93.2838 146.375 91.3192C146.301 84.07 146.235 76.8169 146.384 69.5715C146.475 65.1974 143.246 60.6983 139.43 59.2125C138.283 58.7658 136.981 58.5293 135.749 58.5236C124.693 58.4706 113.636 58.4857 102.58 58.4933C99.9721 58.4952 97.7614 59.4851 95.8346 61.2321C93.0636 63.7457 91.8844 66.9009 91.8844 70.5766C91.8863 77.6081 91.9715 84.6397 91.8504 91.6693C91.7803 95.7387 93.5746 98.7425 96.5557 101.201C97.5778 102.045 98.7399 102.721 99.7715 103.429C99.4989 103.548 99.3513 103.656 98.704 103.525C96.1204 102.997 94.0668 101.608 92.4674 99.5583C90.6182 97.1886 89.7835 94.48 89.8005 91.4592C89.8403 84.3936 89.8403 77.328 89.7986 70.2624C89.7759 66.3576 91.1235 63.0605 93.8851 60.3255C94.1765 60.0378 94.4586 59.7406 94.7463 59.4491C95.7399 58.7999 96.6844 58.0542 97.7368 57.5223C99.5822 56.5854 101.617 56.5551 103.64 56.5551C105.2 56.5608 106.76 56.5665 108.319 56.5722C116.259 56.5778 124.201 56.5646 132.141 56.5968C134.992 56.6081 137.888 56.2296 140.632 57.3955C143.863 59.0573 146.363 61.427 147.535 64.9362C147.989 66.2952 148.343 67.7583 148.36 69.1778C148.447 76.6201 148.449 84.0643 148.4 91.5065C148.371 95.9147 146.341 99.3463 142.903 102.006C140.577 103.378 138.105 104.163 135.37 103.893Z" fill="#445A71"/>
        <path d="M75.6031 138.891C77.9501 138.898 80.299 138.908 82.646 138.917C82.9905 138.919 83.3388 138.893 83.6776 138.94C84.4687 139.05 84.9154 139.566 84.9798 140.323C85.0403 141.052 84.5785 141.497 83.9028 141.662C83.4826 141.764 83.0359 141.754 82.6006 141.796C80.5602 141.788 78.518 141.798 76.4776 141.769C75.3079 141.752 74.564 141.126 74.723 140.174C74.7987 139.708 75.2965 139.315 75.6031 138.891Z" fill="#001929"/>
        <path d="M82.6331 102.037C82.9152 102.05 83.2047 102.026 83.4792 102.083C84.1473 102.221 84.6432 102.571 84.7038 103.317C84.7625 104.023 84.4786 104.558 83.7972 104.801C83.4167 104.935 83.006 104.978 82.6085 105.064C80.8142 105.052 79.0199 105.06 77.2275 105.026C76.1618 105.007 75.6129 104.49 75.6092 103.591C75.6054 102.665 76.0407 102.185 76.9795 102.168C78.4275 102.141 79.8754 102.166 81.3234 102.149C81.7606 102.145 82.1959 102.077 82.6331 102.037Z" fill="#001929"/>
        <path d="M55.5891 128.346C55.5778 127.118 55.557 125.89 55.5551 124.661C55.5494 119.023 55.5475 113.382 55.5513 107.744C55.5513 107.273 55.6005 106.801 55.6289 106.33C55.9866 106.481 56.3425 106.635 56.7002 106.786C58.0478 106.837 59.3936 106.9 60.7431 106.934C61.6554 106.957 62.5715 106.972 63.4838 106.932C64.2238 106.902 64.4813 107.205 64.4756 107.931C64.4453 111.304 64.4396 114.679 64.4434 118.052C64.4472 121.298 64.4718 124.544 64.485 127.79C64.116 127.83 63.7469 127.904 63.3778 127.905C61.3128 127.919 59.2478 127.887 57.1828 127.936C56.6472 127.947 56.1191 128.203 55.5891 128.346Z" fill="#96A8BA"/>
        <path d="M55.582 104.486C55.5858 100.504 55.5877 96.5234 55.5915 92.541C55.8735 93.2092 56.3297 93.6577 57.0868 93.7221C59.2312 93.7202 61.3757 93.7202 63.5221 93.7183C63.8325 93.7202 64.141 93.7221 64.4514 93.724C64.4495 96.8659 64.4495 100.01 64.4363 103.152C64.4344 103.394 64.3246 103.636 64.2641 103.879C61.9076 103.886 59.5492 103.858 57.1947 103.926C56.6533 103.945 56.1196 104.291 55.582 104.486Z" fill="#96A8BA"/>
        <path d="M55.6213 139.729C55.5759 137.634 55.5134 135.541 55.4888 133.445C55.4774 132.386 55.5342 131.326 55.5607 130.266C56.1891 130.404 56.8137 130.642 57.4459 130.663C59.7891 130.739 62.1342 130.741 64.4774 130.771C64.468 133.48 64.4604 136.186 64.4509 138.895C62.1039 138.912 59.7588 138.95 57.4118 138.936C56.668 138.933 56.0547 139.095 55.6213 139.729Z" fill="#96A8BA"/>
        <path d="M55.582 104.487C56.1196 104.292 56.6514 103.945 57.1947 103.93C59.5492 103.862 61.9076 103.89 64.2641 103.883C64.548 103.892 64.8319 103.888 65.1139 103.917C66.0906 104.015 66.6413 104.627 66.5864 105.533C66.5372 106.359 66.0395 106.769 65.0174 106.773C62.2464 106.786 59.4735 106.781 56.7025 106.784C56.3448 106.633 55.989 106.48 55.6312 106.328C55.6123 105.713 55.5972 105.1 55.582 104.487Z" fill="#001929"/>
        <path d="M55.6215 139.725C56.0568 139.091 56.6682 138.928 57.412 138.932C59.759 138.946 62.1041 138.908 64.4511 138.891C64.6707 138.906 64.8902 138.915 65.1098 138.94C66.0921 139.05 66.6372 139.65 66.5824 140.551C66.5313 141.378 66.0145 141.804 65.0189 141.802C62.1249 141.796 59.2309 141.777 56.335 141.764C56.0833 141.51 55.8316 141.258 55.5798 141.005C55.5931 140.577 55.6063 140.151 55.6215 139.725Z" fill="#001929"/>
        <path d="M64.4773 130.77C62.134 130.74 59.7889 130.736 57.4457 130.662C56.8135 130.641 56.1889 130.403 55.5605 130.265C55.57 129.625 55.5795 128.983 55.5908 128.344C56.1208 128.2 56.6489 127.946 57.1807 127.933C59.2438 127.884 61.3107 127.916 63.3757 127.903C63.7448 127.901 64.1139 127.827 64.4829 127.787C65.9233 127.939 66.5176 128.362 66.5176 129.237C66.5176 130.191 66.0804 130.52 64.4773 130.77Z" fill="#001929"/>
        <path d="M57.088 93.7253C56.3309 93.6591 55.8748 93.2105 55.5928 92.5442C55.5966 92.3701 55.6022 92.1941 55.606 92.02C56.0016 91.1266 56.7038 90.8332 57.6521 90.8427C59.9158 90.8635 62.1814 90.8237 64.447 90.8086C66.2395 90.8597 66.9152 91.649 66.3265 92.9815C65.9404 93.8578 65.1341 93.625 64.4527 93.7291C64.1423 93.7272 63.8338 93.7253 63.5234 93.7234C61.377 93.7234 59.2325 93.7253 57.088 93.7253Z" fill="#001929"/>
        <path d="M64.4478 90.8043C62.1821 90.8195 59.9184 90.8592 57.6528 90.8384C56.7045 90.8289 56.0023 91.1242 55.6067 92.0157C55.5916 90.9501 55.5935 89.8826 55.5538 88.8169C55.5254 88.0636 55.8982 87.8365 56.5891 87.8422C58.7828 87.8592 60.9784 87.8611 63.1721 87.8384C63.5941 87.8346 64.0162 87.6889 64.4383 87.6094C64.4421 88.675 64.444 89.7387 64.4478 90.8043Z" fill="#96A8BA"/>
        <path d="M55.5798 141.008C55.8315 141.261 56.0832 141.513 56.335 141.767C56.7287 141.831 57.1224 141.947 57.5179 141.95C59.458 141.967 61.3981 141.988 63.3362 141.941C64.2031 141.918 64.54 142.236 64.4662 143.088C64.4227 143.586 64.4511 144.089 64.4473 144.591C61.4359 144.602 58.4265 144.615 55.417 144.627C55.47 143.419 55.5249 142.213 55.5798 141.008Z" fill="#96A8BA"/>
        <path d="M161.462 123.035C161.013 122.599 160.567 122.166 160.118 121.731C160.383 121.407 160.648 121.081 160.913 120.758C161.288 121.261 161.661 121.763 162.036 122.266C161.844 122.522 161.653 122.779 161.462 123.035Z" fill="#96A8BA"/>
        <path d="M132.944 155.228C132.92 151.829 132.897 148.428 132.872 145.028C133.815 145.015 134.757 144.983 135.7 144.998C136.482 145.011 136.9 145.396 136.91 146.234C136.942 148.876 136.991 151.519 137.07 154.159C137.095 154.99 136.771 155.28 135.961 155.238C134.96 155.189 133.951 155.228 132.944 155.228Z" fill="#CAD1D8"/>
        <path d="M95.2993 115.48C95.2917 117.192 95.2936 118.903 95.2671 120.614C95.2614 120.979 95.1573 121.344 95.0987 121.709C94.4835 120.945 93.8703 120.18 93.2551 119.415C92.8917 119.033 92.5283 118.651 92.0078 118.106C93.1321 117.207 94.2148 116.344 95.2993 115.48Z" fill="#CAD1D8"/>
        <path d="M93.2551 119.412C93.8703 120.177 94.4835 120.941 95.0986 121.706C94.5971 122.026 94.0974 122.346 93.5958 122.664C93.0867 122.098 92.5775 121.532 92.0684 120.966C92.4621 120.449 92.8595 119.931 93.2551 119.412Z" fill="#96A8BA"/>
        <path d="M125.876 87.1957C125.884 84.1029 128.303 81.5913 131.241 81.6253C134.072 81.6594 136.442 84.2468 136.438 87.2998C136.432 90.3357 133.945 92.8985 131.034 92.8645C128.167 92.8304 125.867 90.3017 125.876 87.1957Z" fill="#001929"/>
        <path d="M109.092 87.267C109.082 90.301 106.648 92.8789 103.82 92.8525C100.945 92.826 98.4961 90.2026 98.5207 87.1742C98.5453 84.1118 100.906 81.6266 103.801 81.6133C106.714 81.6001 109.103 84.1534 109.092 87.267Z" fill="#001929"/>
        <path d="M141.774 69.7753C141.774 70.8466 141.789 71.9178 141.77 72.9872C141.749 74.1645 141.196 74.8194 140.29 74.7891C139.425 74.7589 138.961 74.1494 138.955 72.974C138.946 71.2402 138.918 69.5065 138.974 67.7765C139.005 66.8529 138.645 66.5633 137.761 66.5955C136.283 66.6466 134.803 66.6257 133.323 66.603C132.151 66.586 131.559 66.1071 131.534 65.2251C131.509 64.3317 132.068 63.7033 133.192 63.6825C135.391 63.6428 137.596 63.6882 139.796 63.7734C140.784 63.8112 141.548 64.574 141.653 65.7229C141.774 67.0649 141.681 68.2346 141.681 69.7772C141.709 69.7753 141.742 69.7753 141.774 69.7753Z" fill="#96A8BA"/>
        <path d="M117.505 92.807C116.78 92.807 116.055 92.8392 115.334 92.7994C114.441 92.7502 113.839 92.0991 113.786 91.2039C113.733 90.3332 114.215 89.6688 115.171 89.6215C116.772 89.542 118.381 89.5477 119.983 89.6253C120.834 89.6651 121.412 90.4581 121.376 91.2606C121.34 92.0669 120.724 92.7313 119.867 92.7862C119.083 92.8354 118.294 92.7976 117.507 92.7976C117.505 92.7976 117.505 92.8013 117.505 92.807Z" fill="#001929"/>
        <path d="M103.637 56.5508C105.196 56.5565 106.756 56.5621 108.316 56.5697C106.758 56.5621 105.196 56.5565 103.637 56.5508Z" fill="#CAD1D8"/>
        <path d="M57.0889 93.7206C59.2333 93.7187 61.3778 93.7187 63.5242 93.7168C61.3778 93.7187 59.2333 93.7206 57.0889 93.7206Z" fill="#CAD1D8"/>
        <path d="M82.245 24.6035C82.4722 24.6338 82.3074 24.6111 82.1409 24.5902C79.3226 24.2495 78.4235 24.4388 75.9819 25.8924C75.6961 26.0628 75.4292 26.2653 75.1415 26.4319C73.5989 27.3366 72.8759 28.8205 72.3383 30.4218C72.0961 31.1467 72.1321 31.9057 72.2494 32.6495C72.3535 33.3063 72.522 33.9517 72.645 34.6047C72.7491 35.1555 72.503 35.5719 72.0885 35.9051C71.8519 36.0924 71.3201 36.1265 71.1497 35.9429C70.5289 35.2767 69.8684 34.635 69.3308 33.9044C69.0507 33.524 68.9201 32.9902 68.8463 32.5076C68.3106 28.9928 69.5333 26.1271 72.1718 23.8331C74.11 22.1486 76.3756 21.1738 78.9289 20.8729C79.3415 20.8237 79.7541 20.7555 80.1686 20.7253C81.0885 20.659 81.9857 20.5189 82.8299 20.1158C83.6399 19.7297 84.4557 19.8565 85.2563 20.1555C86.0456 20.4489 86.7724 20.8653 87.3611 21.4653C88.0179 22.1353 88.7504 22.6312 89.6703 22.8754C90.5125 23.0988 91.0898 23.695 91.5952 24.3858C92.3447 25.4098 92.8766 26.5057 93.1131 27.7682C93.4065 29.3316 93.6696 30.8817 93.3573 32.4735C93.31 32.7158 93.3119 32.9713 93.3062 33.2211C93.2154 37.5953 91.4399 41.2691 88.5686 44.4565C86.3958 46.8678 84.2191 49.2773 82.2544 51.8609C80.8822 53.6647 79.7693 55.6066 79.4702 57.9158C79.4286 58.2413 79.3434 58.5745 79.2109 58.8735C79.1163 59.0874 78.9233 59.2691 78.7397 59.4262C78.6204 59.5284 78.4387 59.5549 78.2873 59.623C77.2387 60.0887 76.3642 59.8445 75.5844 59.0268C74.8935 58.3019 74.197 57.5978 73.7579 56.6742C73.4134 55.953 73.3624 55.2395 73.633 54.4994C74.2349 52.8489 75.0166 51.2931 76.0671 49.8754C77.8027 47.5341 79.5857 45.2306 81.573 43.0937C83.11 41.4413 84.4178 39.6148 85.6973 37.7675C86.7024 36.3177 87.3005 34.6653 87.7813 32.9789C87.9157 32.5095 87.9365 31.989 87.9175 31.4969C87.8816 30.4994 87.8191 29.5 87.6999 28.5101C87.4784 26.6439 86.4053 25.4931 84.5958 25.0407C83.9523 24.8779 83.2879 24.7947 82.245 24.6035Z" fill="#FF7F69"/>
        <path d="M80.163 73.6937C79.3018 73.5593 78.8134 73.2754 78.4065 72.8382C77.9466 72.3442 77.6418 71.7688 77.4809 71.112C77.3371 70.5196 77.3977 69.9536 77.7838 69.4691C78.0904 69.083 78.4255 68.7139 78.787 68.3789C79.245 67.9549 79.8147 67.8792 80.409 68.0117C80.9201 68.1271 81.3611 68.4016 81.5125 68.907C81.8191 69.9309 82.069 70.9738 82.3056 72.0167C82.3567 72.2401 82.2753 72.5107 82.1996 72.7417C82.0652 73.1524 81.8002 73.4874 81.3592 73.5688C80.8822 73.6559 80.3901 73.671 80.163 73.6937Z" fill="#FF7F69"/>
        <path d="M34.8339 41.5168C34.7734 41.1629 34.5576 40.8487 34.5841 40.4644C34.5917 40.3414 34.4535 40.2014 34.3645 40.0821C34.0901 39.7074 34.0731 39.6979 34.3607 39.3364C34.6201 39.0108 34.6731 38.6966 34.4384 38.3465C34.41 38.3029 34.3759 38.2632 34.3437 38.2234C34.0447 37.8695 34.0181 37.4474 34.1487 37.0481C34.3437 36.4575 34.4838 35.8689 34.55 35.2462C34.6409 34.3887 35.0592 33.679 35.7879 33.1793C35.8731 33.1301 35.9639 33.0847 36.0415 33.026C36.068 33.007 36.0642 32.9484 36.0756 32.9086C35.9828 33.0052 35.8882 33.1017 35.7955 33.1982C35.6043 32.6796 35.6402 32.1856 35.9506 31.72C35.979 31.6764 36.0055 31.631 36.0263 31.5837C36.2648 31.0462 36.6112 30.626 37.1753 30.3913C37.3721 30.3099 37.4668 30.0695 37.3759 29.8651C37.198 29.4676 37.3305 29.161 37.5974 28.8828C37.9172 28.5477 38.273 28.2449 38.5645 27.8872C38.8106 27.5843 39.0662 27.3988 39.4693 27.431C39.5431 27.4367 39.6302 27.325 39.7021 27.255C39.7362 27.2228 39.757 27.1622 39.757 27.1149C39.7589 26.3162 40.2434 25.9092 40.9267 25.6575L40.8983 25.6651C40.9664 25.5894 41.0213 25.4928 41.1046 25.4399C41.7954 24.9894 42.3122 24.3648 42.8649 23.7686C43.2434 23.3616 43.6201 22.9547 44.0554 22.5913C44.7652 22.0007 45.1797 21.1471 45.6699 20.3711C45.8327 20.1118 45.9595 19.8316 46.0977 19.5591C46.2453 19.2657 46.4743 19.0878 46.7942 19.014C47.0781 18.9496 47.2011 18.732 47.2749 18.4764L47.2807 18.4954C47.1425 18.3193 47.0762 18.1149 47.1973 17.9219C47.3904 17.6171 47.6005 17.3181 47.8352 17.0455C48.0472 16.7976 48.1589 16.5156 48.2213 16.2089C48.4371 15.1395 48.5885 14.0663 48.5866 12.9686C48.5829 11.8424 48.2289 10.8279 47.68 9.87203C47.3355 9.27392 46.8907 8.78749 46.179 8.60578C45.8743 8.52818 45.6113 8.36162 45.4826 8.04175C45.3671 7.75216 45.1381 7.7124 44.8523 7.74836C44.1349 7.83922 43.6296 8.28023 43.1526 8.76288C43.0087 8.90863 42.9027 9.09411 42.7929 9.26824C41.6572 11.0626 40.5179 12.855 39.3917 14.6569C39.2005 14.9635 39.0585 15.3004 38.892 15.6241C38.5361 16.3187 38.2163 17.019 38.2125 17.831C38.2106 18.2417 38.1103 18.6525 38.046 19.0632C37.9078 19.9376 37.8283 20.8121 38.0308 21.6903C38.063 21.8323 38.0308 22.0026 37.9815 22.1446C37.9569 22.2146 37.8188 22.2922 37.7393 22.2865C37.5917 22.2733 37.427 22.2316 37.3059 22.1484C36.1475 21.361 34.9627 20.6134 33.8857 19.7124C33.5299 19.4134 33.1418 19.1503 32.7576 18.8872C32.3298 18.5938 31.8851 18.3269 31.4573 18.0316C30.8062 17.5831 30.5526 16.896 30.7437 16.1313C30.7816 15.9799 30.8326 15.8342 30.8838 15.6865C31.3967 14.2178 31.8661 12.732 32.4339 11.2859C33.0434 9.73764 33.8743 8.30483 34.8642 6.9572C35.8844 5.56982 37.0408 4.32061 38.3563 3.21336C39.0755 2.60768 39.8459 2.08717 40.6901 1.68212C42.191 0.962877 43.7318 0.357204 45.3879 0.0903272C46.4308 -0.078127 47.449 -0.00620413 48.4673 0.266351C49.5765 0.563512 50.6213 1.01967 51.6566 1.50042C51.9822 1.65184 52.2927 1.85626 52.5766 2.07581C54.1116 3.26446 55.3892 4.67834 56.3393 6.37991C57.157 7.84301 57.6774 9.39127 57.9538 11.055C58.4724 14.1648 58.0825 17.161 56.996 20.0758C56.6005 21.1395 56.0365 22.1446 55.4876 23.144C55.1639 23.7326 54.8081 24.3042 54.5185 24.9156C54.2516 25.4777 53.9374 26.019 53.4756 26.4525C53.0195 26.8821 52.6049 27.3231 52.4213 27.9572C52.3551 28.1862 52.1431 28.3982 51.9501 28.5591C51.3917 29.019 50.8408 29.5074 50.2219 29.8764C49.6162 30.2361 49.126 30.6544 48.8572 31.3074C48.7096 31.6689 48.4446 31.8828 48.0888 32.0304C47.9695 32.0796 47.8238 32.25 47.82 32.3673C47.803 32.9503 47.4566 33.3156 47.0478 33.6487C46.9285 33.7471 46.7677 33.8001 46.6617 33.908C46.5236 34.0518 46.3362 34.2222 46.3191 34.3963C46.2794 34.8222 46.1034 35.1932 45.9557 35.5774C45.9179 35.6739 45.8857 35.7724 45.8497 35.8708C45.1665 37.7522 44.8995 39.6903 45.1153 41.6815C45.2156 42.607 45.2478 43.5458 45.5204 44.4487C45.8005 45.3818 45.7172 46.2922 45.3443 47.1837C45.244 47.4222 45.1569 47.6664 45.0604 47.9067C44.7727 48.6146 44.6686 48.5862 43.9986 48.3913C43.8528 48.3477 43.6901 48.3553 43.5368 48.3402L43.5387 48.3553C43.4365 48.3004 43.3343 48.2455 43.2321 48.1906L43.2472 48.185C43.0504 48.3231 42.8535 48.4594 42.6585 48.5976L42.6794 48.59C42.4579 48.4575 42.227 48.3402 42.0169 48.1925C41.5343 47.85 41.5342 47.8424 41.1803 48.4954C41.1576 48.537 41.1065 48.5635 41.063 48.6014C40.8302 48.5749 40.6333 48.3269 40.3513 48.5143C40.0957 48.6846 39.8024 48.802 39.5109 48.9496C38.9904 48.8682 38.5305 48.6184 38.0951 48.3553C37.6598 48.0922 37.2604 47.761 36.8856 47.4146C36.6225 47.1724 36.4276 46.8581 36.2062 46.5723C35.9847 46.2884 35.7576 46.0083 35.5513 45.713C35.4339 45.5465 35.2882 45.3629 35.2674 45.1755C35.2068 44.5868 34.9683 44.0947 34.6201 43.6272C34.5519 43.5364 34.6314 43.332 34.6447 43.1806L34.6163 43.1919C34.6731 43.0897 34.728 42.9856 34.7848 42.8834L34.7904 42.9023C34.8018 42.4348 34.8132 41.9654 34.8245 41.4979L34.8339 41.5168Z" fill="#FF7F69"/>
        <path d="M43.6845 56.5755C43.7053 56.2935 43.834 56.0739 44.1103 55.9944C44.3564 55.9225 44.6213 55.9187 44.8693 55.8506C46.2642 55.4739 47.2882 56.1175 48.1418 57.0941C48.8952 57.9553 49.4289 58.9755 49.8377 60.0373C50.1538 60.8588 50.2674 61.7313 50.044 62.6209C49.9569 62.9673 49.9475 63.3326 49.9021 63.6884C49.8434 64.1503 49.8074 64.614 49.7166 65.0701C49.6787 65.2594 49.5632 65.4733 49.4175 65.5944C48.9822 65.9559 48.5336 66.3061 48.0548 66.607C47.398 67.0178 46.7185 67.3868 45.9103 67.4342C45.4996 67.4588 45.0907 67.5269 44.6818 67.5799C44.0989 67.6556 43.5576 67.5175 43.0257 67.2865C42.0699 66.8758 41.4188 66.1736 41.0308 65.2272C40.8756 64.8468 40.7374 64.4474 40.6693 64.0443C40.5065 63.079 40.2661 62.1231 40.2604 61.1313C40.2566 60.6714 40.1507 60.2096 40.0825 59.7496C40.0219 59.3446 39.952 58.9395 39.8914 58.5742C40.2151 58.0007 40.5898 57.6052 41.2731 57.7452C41.2882 57.7869 41.2958 57.8323 41.3204 57.8664C41.3374 57.891 41.3753 57.9023 41.4036 57.9194C41.3525 57.8645 41.3014 57.8077 41.2503 57.7528C41.4585 57.6184 41.6592 57.4556 41.9337 57.5995C42.0946 57.6846 42.1967 57.9667 42.4201 57.8134C42.4996 57.7585 42.4693 57.537 42.4826 57.3913C42.5318 56.9029 42.5621 56.8689 43.1091 56.7137C43.1564 56.7004 43.2075 56.7061 43.2586 56.7023L43.2567 56.6815C43.1696 57.0203 43.2547 57.3061 43.5254 57.5313L43.5046 57.537C43.5198 57.3042 43.5349 57.0714 43.5481 56.8367L43.5236 56.8575C43.5785 56.7591 43.6333 56.6607 43.6863 56.5622L43.6845 56.5755ZM45.9217 56.3522C45.9652 56.3692 46.0087 56.3957 46.0522 56.3995C46.0844 56.4014 46.1204 56.373 46.1545 56.3559C46.0787 56.3635 46.003 56.3692 45.9292 56.3768L45.9217 56.3522Z" fill="#FF7F69"/>
        <path d="M42.6605 48.5957C42.6964 48.626 42.7323 48.6544 42.7683 48.6846C42.7399 48.6525 42.7096 48.6203 42.6813 48.5881C42.6794 48.5881 42.6605 48.5957 42.6605 48.5957Z" fill="#FF7F69"/>
        <path d="M43.2567 56.7042C43.3986 56.6607 43.5425 56.619 43.6845 56.5755L43.6825 56.566C43.6276 56.6645 43.5728 56.7629 43.5198 56.8613L43.5444 56.8405C43.4478 56.7875 43.3494 56.7364 43.2529 56.6834L43.2567 56.7042Z" fill="#FF7F69"/>
        <path d="M43.5387 48.3383C43.4422 48.2872 43.3456 48.2342 43.2491 48.1831L43.2339 48.1887C43.3361 48.2436 43.4384 48.2985 43.5406 48.3534L43.5387 48.3383Z" fill="#FF7F69"/>
        <path d="M34.3551 43.031C34.5009 42.9875 34.6465 42.9439 34.7923 42.9004L34.7866 42.8815C34.7298 42.9856 34.6749 43.0878 34.6181 43.19L34.6466 43.1787C34.5482 43.1219 34.4498 43.0632 34.3513 43.0064L34.3551 43.031Z" fill="#FF7F69"/>
        <path d="M34.8264 41.496L34.8321 41.5187C34.834 41.5168 34.8264 41.496 34.8264 41.496Z" fill="#FF7F69"/>
        <path d="M12.6337 57.1268C12.5139 56.9723 12.3297 56.8766 12.244 56.6852C12.2161 56.6241 12.1138 56.5922 12.0405 56.5577C11.8126 56.448 11.802 56.4478 11.8476 56.2004C11.8888 55.9775 11.8338 55.8129 11.6313 55.7048C11.6065 55.6912 11.5799 55.6808 11.5543 55.67C11.3199 55.5765 11.1989 55.3805 11.1594 55.1552C11.1017 54.8215 11.0182 54.5027 10.8904 54.1865C10.7144 53.7513 10.7335 53.303 10.9556 52.8762C10.9839 52.8307 11.0159 52.7856 11.0381 52.7376C11.046 52.7217 11.0292 52.6944 11.0245 52.6724C11.0046 52.7426 10.9839 52.8132 10.9641 52.8834C10.7393 52.6832 10.63 52.4366 10.6598 52.1333C10.6623 52.1051 10.6634 52.0765 10.6613 52.0484C10.6381 51.729 10.6969 51.4384 10.9078 51.181C10.9815 51.0915 10.9654 50.9517 10.8693 50.8768C10.682 50.7314 10.6671 50.5501 10.724 50.3481C10.7919 50.1051 10.8852 49.8684 10.9336 49.6218C10.9742 49.4133 11.0495 49.2587 11.2515 49.1708C11.2884 49.1546 11.3016 49.0787 11.3182 49.0266C11.3264 49.0024 11.3208 48.9679 11.3087 48.9452C11.1049 48.5609 11.2335 48.2412 11.4973 47.9452L11.4856 47.9561C11.4989 47.9023 11.5005 47.8418 11.527 47.795C11.7435 47.4015 11.8317 46.969 11.9445 46.5409C12.0221 46.2484 12.0988 45.9563 12.2149 45.6701C12.4046 45.2045 12.385 44.6881 12.4217 44.1896C12.4335 44.0233 12.4226 43.8562 12.4192 43.6898C12.4149 43.511 12.4794 43.3669 12.6142 43.2494C12.7341 43.1458 12.7374 43.0097 12.7074 42.868L12.715 42.8756C12.6035 42.8264 12.5193 42.7452 12.528 42.6214C12.5427 42.4255 12.567 42.2279 12.6099 42.0368C12.6482 41.8634 12.6296 41.6993 12.5811 41.5359C12.4107 40.9668 12.2085 40.4123 11.9263 39.8853C11.6359 39.3452 11.2058 38.9484 10.6971 38.6298C10.3784 38.4307 10.04 38.3109 9.65144 38.406C9.48514 38.4468 9.31607 38.4342 9.17226 38.3134C9.04257 38.2039 8.92233 38.2435 8.79422 38.334C8.47282 38.5615 8.34301 38.9029 8.23751 39.257C8.20573 39.3639 8.2023 39.4802 8.19417 39.592C8.1083 40.7452 8.02015 41.8984 7.94076 43.0528C7.92748 43.2491 7.94559 43.4474 7.9485 43.6456C7.95553 44.0705 7.9813 44.489 8.18755 44.8801C8.29189 45.0779 8.34895 45.301 8.42328 45.5148C8.58097 45.9704 8.76685 46.411 9.08921 46.7811C9.14105 46.841 9.16921 46.9311 9.18194 47.0119C9.18807 47.0519 9.14158 47.1246 9.10193 47.1422C9.0276 47.1737 8.9378 47.1959 8.85825 47.1869C8.0999 47.1054 7.33901 47.0498 6.59066 46.8929C6.34305 46.8404 6.08915 46.8134 5.83712 46.7854C5.5564 46.7541 5.27432 46.7398 4.99312 46.7076C4.56532 46.6589 4.26739 46.3937 4.1633 45.9773C4.14268 45.8949 4.12987 45.8117 4.11659 45.7277C3.98668 44.8905 3.83148 44.0563 3.73376 43.216C3.62985 42.3159 3.66197 41.4145 3.79228 40.5133C3.92696 39.5852 4.1625 38.6887 4.51083 37.8195C4.70122 37.3442 4.93799 36.8967 5.23981 36.4857C5.7767 35.7555 6.36182 35.0697 7.08921 34.5171C7.54715 34.1689 8.05483 33.9425 8.61396 33.8125C9.22305 33.6711 9.84197 33.6225 10.4626 33.5882C10.6579 33.5776 10.8594 33.5962 11.0521 33.629C12.0943 33.8068 13.0705 34.1587 13.963 34.7329C14.7308 35.2263 15.3777 35.8369 15.9368 36.5655C16.9829 37.9268 17.5633 39.4664 17.7882 41.1454C17.8707 41.7579 17.8573 42.3853 17.8496 43.0062C17.8449 43.3719 17.8204 43.7378 17.8379 44.1058C17.8538 44.4442 17.8415 44.7849 17.7307 45.1115C17.6216 45.4348 17.5354 45.7529 17.6097 46.1047C17.6365 46.2317 17.589 46.3878 17.5375 46.5146C17.3871 46.8787 17.2475 47.2545 17.0447 47.5904C16.8458 47.9184 16.7175 48.245 16.7557 48.6277C16.7774 48.8392 16.7048 49.0099 16.5717 49.172C16.527 49.2262 16.5006 49.3454 16.5289 49.4028C16.6701 49.6873 16.5973 49.9515 16.4862 50.2164C16.4541 50.2942 16.3904 50.3609 16.3672 50.4399C16.3376 50.5444 16.2912 50.6743 16.3277 50.7623C16.4177 50.9771 16.4282 51.2005 16.4557 51.4229C16.4623 51.479 16.472 51.5346 16.48 51.5911C16.6338 52.6702 17.0021 53.6698 17.6161 54.5713C17.9014 54.9903 18.1575 55.4332 18.5198 55.7971C18.8935 56.1737 19.0868 56.6325 19.1361 57.1564C19.149 57.2967 19.1697 57.4363 19.1849 57.5766C19.2281 57.9904 19.1708 58.0035 18.7989 58.0815C18.7177 58.0979 18.6415 58.1433 18.5639 58.1753L18.5687 58.182C18.5055 58.1819 18.4424 58.1817 18.3792 58.1815L18.385 58.1749C18.3258 58.2917 18.2661 58.4077 18.2079 58.524L18.216 58.515C18.0756 58.5081 17.9346 58.5109 17.7958 58.4938C17.4761 58.4529 17.4741 58.4492 17.4714 58.8537C17.4711 58.8795 17.4534 58.9053 17.4422 58.9347C17.3235 58.9816 17.1654 58.9129 17.0779 59.0752C16.9988 59.2226 16.8879 59.3541 16.7857 59.4998C16.5147 59.594 16.2297 59.5918 15.9531 59.577C15.6765 59.5621 15.3997 59.5053 15.1309 59.4349C14.9424 59.3859 14.7682 59.2849 14.5886 59.2043C14.4094 59.1247 14.2285 59.0483 14.0537 58.9593C13.9546 58.9093 13.8376 58.8584 13.7795 58.7737C13.5996 58.5064 13.3589 58.331 13.0718 58.1957C13.0157 58.1695 13.0016 58.0509 12.9691 57.9747L12.9584 57.9874C12.9595 57.9238 12.9592 57.8597 12.9603 57.796L12.9678 57.8037C12.8535 57.5761 12.7387 57.3477 12.6243 57.1201L12.6337 57.1268Z" fill="#FF7F69"/>
        <path d="M20.7452 62.0945C20.6829 61.9536 20.6885 61.8151 20.8009 61.7061C20.9007 61.6085 21.0271 61.5388 21.1287 61.4425C21.7025 60.9041 22.3594 60.9509 23.0198 61.2014C23.6025 61.4222 24.1204 61.7756 24.5889 62.1811C24.9513 62.4948 25.2294 62.8849 25.3501 63.3696C25.397 63.5584 25.4861 63.7363 25.5554 63.9189C25.6456 64.1559 25.7471 64.3879 25.8204 64.6304C25.8507 64.731 25.85 64.8634 25.811 64.9589C25.6945 65.2442 25.5687 65.5274 25.4157 65.7947C25.2054 66.1603 24.9735 66.5118 24.5973 66.7416C24.4062 66.8587 24.2272 66.9962 24.0443 67.1265C23.7836 67.3122 23.4881 67.3846 23.1734 67.4099C22.6089 67.4575 22.1161 67.2869 21.6872 66.9316C21.5151 66.7886 21.3464 66.6321 21.2103 66.4558C20.8847 66.0337 20.5243 65.636 20.2674 65.1609C20.1477 64.9409 19.9785 64.7462 19.8279 64.5426C19.695 64.3635 19.5575 64.1868 19.4348 64.0268C19.4434 63.6683 19.5221 63.3822 19.8863 63.2744C19.9042 63.2906 19.9195 63.3105 19.94 63.3205C19.9545 63.328 19.9756 63.3237 19.9936 63.3246C19.955 63.3114 19.9159 63.2972 19.8773 63.2839C19.9429 63.166 19.9976 63.0363 20.1663 63.0351C20.2655 63.0348 20.3868 63.1442 20.4549 63.0133C20.479 62.9665 20.4077 62.8679 20.3767 62.7944C20.2752 62.5472 20.2811 62.5231 20.5041 62.3083C20.5235 62.2898 20.5495 62.2794 20.5731 62.2645L20.5668 62.255C20.6118 62.4401 20.7259 62.5556 20.9137 62.5945L20.9052 62.6026C20.8528 62.4868 20.8004 62.3711 20.7466 62.2549L20.7402 62.2712C20.7413 62.2099 20.7424 62.1485 20.7427 62.0876L20.7452 62.0945ZM21.7629 61.4139C21.7882 61.4109 21.8159 61.4125 21.8378 61.4031C21.8537 61.3958 21.8638 61.3729 21.8758 61.356C21.8413 61.3791 21.8064 61.4012 21.7729 61.4237L21.7629 61.4139Z" fill="#FF7F69"/>
        <path d="M18.2083 58.5226C18.2334 58.5279 18.2579 58.5324 18.2829 58.5377C18.261 58.5295 18.2383 58.5218 18.2164 58.5136C18.2155 58.5141 18.2083 58.5226 18.2083 58.5226Z" fill="#FF7F69"/>
        <path d="M20.5726 62.2659C20.6297 62.2086 20.6881 62.1518 20.7452 62.0945L20.7418 62.0904C20.7407 62.1518 20.7395 62.2131 20.7393 62.274L20.7458 62.2577C20.6858 62.257 20.6254 62.2576 20.5655 62.2569L20.5726 62.2659Z" fill="#FF7F69"/>
        <path d="M18.5644 58.1739C18.5049 58.174 18.4449 58.1733 18.3854 58.1735L18.3796 58.1801C18.4428 58.1803 18.5059 58.1805 18.5691 58.1807L18.5644 58.1739Z" fill="#FF7F69"/>
        <path d="M12.7917 57.9771C12.8505 57.9188 12.9094 57.8606 12.9682 57.8023L12.9607 57.7946C12.9601 57.8592 12.9599 57.9224 12.9588 57.9861L12.9696 57.9733C12.9077 57.9713 12.8454 57.9683 12.7835 57.9662L12.7917 57.9771Z" fill="#FF7F69"/>
        <path d="M12.6248 57.1187L12.6333 57.1282C12.6338 57.1268 12.6248 57.1187 12.6248 57.1187Z" fill="#FF7F69"/>
    </g>
    <defs>
        <clipPath id="clip0_586_3601">
            <rect width="180" height="161.64" fill="white"/>
        </clipPath>
    </defs>
</svg>
