<svg width="82" height="82" viewBox="0 0 82 82" fill="none" xmlns="http://www.w3.org/2000/svg">
<path d="M9.14452 79.097C9.3551 78.8654 9.92401 78.7966 10.1889 78.7427C11.916 78.3913 13.7022 78.3334 15.4571 78.2578C20.5976 78.0365 25.7452 78.09 30.889 78.09C31.1843 78.09 32.0701 78.0863 31.7749 78.09C31.308 78.0959 30.8425 78.1337 30.3762 78.1553C26.5211 78.3335 22.6822 78.3855 18.8233 78.463C16.1969 78.5157 13.5775 78.6815 10.9535 78.7893C9.73804 78.8393 8.50009 78.7983 7.28897 78.9292C6.64284 78.9991 7.4014 78.9706 7.606 78.9292C16.0142 77.2287 24.4418 78.3874 32.8378 79.5353C33.5721 79.6357 34.3261 79.7684 35.071 79.7684C35.1348 79.7684 34.9435 79.7695 34.8799 79.7731C32.9042 79.8828 30.9208 79.5915 28.9542 79.4281C22.4197 78.885 15.8578 78.7341 9.30304 78.8546C7.3591 78.8904 5.41144 78.9434 3.48927 79.2602C3.1638 79.3139 2.33302 79.3686 2.03932 79.6379C1.85189 79.8097 2.39517 79.7639 2.39831 79.7637C4.76266 79.6609 7.06975 79.4537 9.44757 79.5306C14.8908 79.7067 20.3199 80.1157 25.7699 79.9689C27.0806 79.9336 28.3851 79.8488 29.6909 79.7358C29.9468 79.7136 30.259 79.7346 30.4601 79.6006" stroke="#ED7F65" stroke-width="3.04344" stroke-linecap="round"/>
<g clip-path="url(#clip0_6008_4718)">
<path d="M27.0447 77.7552C25.7152 78.1789 25.3168 78.1535 24.888 78.2627C23.6574 77.0955 23.7259 75.3473 23.7462 73.8223C23.7843 70.9577 24.1725 70.2371 25.7761 67.923C25.9207 67.7124 26.7809 66.9944 26.791 66.9081C26.8747 66.1393 21.2799 62.3358 27.2985 52.5722C34.5958 40.7203 41.5202 28.6401 48.612 16.669C46.4858 15.9027 46.874 13.751 47.9777 12.2286C49.3961 10.2774 51.0098 10.7164 51.2762 10.5794C51.6974 10.3637 53.74 5.52248 56.7949 2.90395C65.6807 -4.71057 78.9002 3.98232 78.0451 13.6242C77.9791 14.3752 77.4082 15.4257 77.4107 15.5272C77.4107 15.5906 77.9385 16.3391 77.9182 16.669C77.8802 17.3211 73.7722 22.9996 73.7316 23.3929C73.7037 23.6669 75.4063 26.3337 72.907 28.4041C71.3516 29.6905 70.7706 28.2671 70.0525 29.7362L48.7389 67.2887C42.8447 76.3774 35.2809 72.1502 34.4664 72.2999C34.0046 72.3837 32.8654 75.9004 27.0447 77.7552Z" fill="#0F1010"/>
<path d="M61.299 22.8206C53.5626 36.4663 45.2884 49.833 37.3212 63.3544C36.2378 64.58 34.9818 64.8134 33.3883 64.5597C32.4444 64.41 32.0233 64.1232 31.2316 63.6716C32.9621 64.3491 35.6389 64.9656 36.9406 63.2276C32.7134 65.1356 28.4355 62.578 28.8211 57.7723C28.8541 57.3663 29.4022 56.4681 28.948 56.3133C29.8411 54.2251 39.0745 39.3335 41.3809 35.3169C42.7079 33.0029 43.8802 30.6026 45.1869 28.2758C44.1365 34.8069 51.1776 34.949 53.9407 30.1154C57.1809 24.4495 50.8832 19.8849 46.5824 25.7385C48.1251 23.0007 49.9419 20.3873 51.1496 17.4922C52.8826 18.0123 59.3275 21.6356 61.299 22.8206Z" fill="#BBC5D0"/>
<path d="M46.9631 65.8272C42.9465 69.2932 33.6396 68.7426 30.0898 65.0026C30.27 64.726 32.9723 65.8577 33.3884 65.9541C35.946 66.5478 37.882 66.6087 39.7317 64.4951C42.0534 61.8411 59.8045 30.4797 63.8363 24.4688C65.5922 25.5979 67.3784 26.6838 69.0379 27.9576L46.9631 65.8272Z" fill="#586F88"/>
<path d="M63.8364 24.4696C59.8045 30.4805 42.0534 61.8419 39.7317 64.496C37.882 66.6096 35.946 66.5487 33.3884 65.9549C32.9697 65.4119 33.5381 65.417 33.3884 64.5594C34.9818 64.8131 36.2378 64.5797 37.3213 63.3542C45.2885 49.8327 53.5627 36.4661 61.299 22.8203C62.1592 23.3379 62.9914 23.9266 63.8364 24.4696Z" fill="#001929"/>
<path d="M51.1504 17.4896C49.9426 20.3847 48.1259 22.9982 46.5832 25.7359C46.1087 26.5783 45.6596 27.4334 45.1876 28.2733C43.8809 30.6 42.7087 33.0003 41.3816 35.3144C39.0752 39.3309 29.8419 54.2225 28.9487 56.3108C27.6648 59.3073 27.8957 61.4869 30.7249 63.4153C27.7739 66.2317 26.8351 60.0736 26.792 58.0869C27.1345 56.6102 28.0835 55.3212 28.695 53.9637C36.0761 41.8226 43.2872 29.5749 50.3257 17.2359C50.6886 17.1496 50.8966 17.4135 51.1504 17.4896Z" fill="#F4F4F4"/>
<path d="M30.7239 63.4143C30.7467 63.4296 30.9523 63.5082 31.2314 63.6681C32.023 64.1197 32.4442 64.4064 33.3881 64.5561C33.5378 65.4137 32.9694 65.4087 33.3881 65.9517C32.972 65.8552 30.2697 64.7236 30.0896 65.0002C33.6393 68.7402 42.9462 69.2908 46.9628 65.8248C46.5924 66.6215 46.0265 67.2178 45.4404 67.8547C41.0635 70.7041 37.7371 70.2169 33.1344 68.2353C32.2818 67.8673 30.8736 66.959 29.8993 66.4591C29.1406 66.0709 26.3495 65.5355 28.1866 64.4927C26.106 63.4879 26.3546 59.9661 26.791 58.0859C26.8342 60.0727 27.773 66.2308 30.7239 63.4143Z" fill="#BBC5D0"/>
<path d="M45.4408 67.8594C43.2207 70.28 40.8432 71.3507 37.5117 71.031C35.8472 70.8712 33.2642 70.006 33.1348 68.24C37.7375 70.2216 41.0639 70.7088 45.4408 67.8594Z" fill="#586F88"/>
<path d="M68.0233 2.26876C67.8762 2.44891 67.9371 2.80159 67.7062 2.90309C67.3002 3.0807 62.4488 1.98204 59.2696 4.67922C59.1884 4.74773 58.9499 4.86952 58.889 4.93295C58.6657 4.3925 58.1734 4.58788 58.1278 4.55235L57.874 4.10832C60.8985 1.10412 64.1793 0.890985 68.0233 2.26876Z" fill="#EAEDE9"/>
<path d="M68.4036 11.2774L65.3588 16.9864C62.9305 15.8776 59.6625 13.6752 54.4482 11.4043C55.7753 9.53937 56.9069 7.44861 58.3811 5.69531C61.8522 7.33443 65.1609 9.23742 68.4036 11.2774Z" fill="#BBC5D0"/>
<path d="M65.8662 17.11C66.3914 17.3206 67.0435 17.9092 67.3886 17.6809L69.9259 12.2891C71.9457 13.6237 73.9654 14.938 75.8887 16.4122C75.5385 17.0922 72.8464 21.8015 72.5267 21.8041C70.4283 20.0914 67.858 18.8075 65.8662 17.11Z" fill="#586F88"/>
<path d="M69.9256 12.2962L67.3883 17.688C67.0432 17.9164 66.3911 17.3277 65.8659 17.1171C65.7897 17.0867 65.668 17.1323 65.3584 16.9902L68.4032 11.2812C68.9284 11.6111 69.4131 11.9562 69.9256 12.2962Z" fill="#586F88"/>
<path d="M58.8886 4.93396C58.6907 5.13694 58.5689 5.46933 58.3812 5.69516C56.907 7.44845 55.7753 9.53921 54.4483 11.4041C54.3595 11.3661 53.6668 11.2697 53.1162 11.0236C54.4711 8.72727 55.8667 6.1062 58.1274 4.55336C58.1731 4.58888 58.6654 4.39351 58.8886 4.93396Z" fill="#EAEDE9"/>
<path d="M68.2771 2.27222C70.0177 4.96686 71.1823 6.84449 70.5607 10.2648C68.3862 9.32853 63.2176 5.69508 59.2695 4.68268C62.4488 1.9855 67.3002 3.08416 67.7062 2.90655C67.9371 2.80506 67.8762 2.45237 68.0233 2.27222C68.0868 2.29505 68.2162 2.24938 68.2771 2.27222Z" fill="#BBC5D0"/>
<path d="M71.3223 10.5152C72.2002 10.7385 71.3223 6.08756 71.576 4.17188C77.4601 8.38384 77.0592 14.1309 76.3335 14.1943C74.8263 12.7683 72.7203 11.931 71.3223 10.5152Z" fill="#586F88"/>
<path d="M71.5759 4.17644C71.3221 6.09212 72.2001 10.743 71.3221 10.5198C70.6853 10.5604 70.599 10.2813 70.5609 10.266C71.1826 6.84571 70.018 4.96808 68.2773 2.27344C69.4648 2.72508 70.5457 3.43807 71.5759 4.17644Z" fill="#586F88"/>
<path d="M70.4334 22.8209L69.0379 25.1045C67.4292 23.9906 63.1563 21.2224 61.5527 20.2836C63.509 19.9664 62.9736 19.5275 62.8214 18C65.4171 19.5325 68.0813 20.9002 70.4334 22.8209Z" fill="#BBC5D0"/>
<path d="M62.8215 17.9968C62.9737 19.5243 63.5091 19.9632 61.5528 20.2804C57.6834 18.0145 53.2456 15.769 48.9296 14.5714C48.3891 14.0791 49.1047 13.5285 49.2467 13.3027C49.0057 14.1324 53.2075 15.3478 54.7654 15.9669C57.0566 14.0994 51.5659 12.8206 50.1348 12.4147C51.9693 11.212 60.0507 16.3602 62.8215 17.9968Z" fill="#BBC5D0"/>
<path d="M50.1353 12.4141C51.5664 12.82 57.0572 14.0988 54.766 15.9663C53.208 15.3472 49.0062 14.1318 49.2473 13.3021C49.4756 12.9393 49.6228 12.4876 50.1353 12.4141Z" fill="#F4F4F4"/>
<path d="M69.0381 25.1039L70.4336 22.8203C72.3392 24.3757 73.8869 24.9238 71.8926 27.3875C71.7099 27.4078 69.4238 25.3703 69.0381 25.1039Z" fill="#001929"/>
<path d="M28.5674 69.8899L29.9629 68.875C31.4676 69.6007 34.5022 71.0749 32.4368 72.9347C31.2468 71.5468 30.0238 70.8617 28.5674 69.8899Z" fill="#FF7F69"/>
<path d="M27.5527 72.0521L27.9333 71.1641C28.7757 71.5345 32.2849 73.6227 30.2804 74.082C29.3644 73.435 28.4839 72.6738 27.5527 72.0521Z" fill="#FF7F69"/>
<path d="M29.9628 68.877L28.5672 69.8919C28.3363 69.7371 26.9484 69.0343 26.918 68.9404C27.3113 67.1998 28.9986 68.4101 29.9628 68.877Z" fill="#F8D4CE"/>
<path d="M27.933 71.1578L27.5524 72.0458C26.9053 71.6145 24.7537 71.1324 26.3471 70.5234C26.8774 70.7264 27.4153 70.9294 27.933 71.1578Z" fill="#F1CBB8"/>
<path d="M25.3326 72.5547C25.3631 73.6305 24.9114 75.1681 25.4595 76.4875C24.9622 76.6753 24.5105 73.3133 25.3326 72.5547Z" fill="#3B3F41"/>
<path d="M31.232 63.6708C30.9529 63.5109 30.7474 63.4322 30.7245 63.417C27.8954 61.4887 27.6645 59.3091 28.9484 56.3125C29.4026 56.4673 28.8545 57.3655 28.8215 57.7715C28.4359 62.5772 32.7138 65.1348 36.941 63.2267C35.6393 64.9648 32.9625 64.3482 31.232 63.6708Z" fill="#001929"/>
<path d="M45.187 28.2792C45.6589 27.4394 46.108 26.5843 46.5825 25.7419C50.8833 19.8883 57.181 24.4529 53.9408 30.1188C51.1776 34.9524 44.1365 34.8103 45.187 28.2792Z" fill="#001929"/>
<path d="M52.0381 24.8555C52.7131 28.0196 50.9268 29.6993 48.6128 31.4526C44.7611 30.9045 48.6254 22.7166 52.0381 24.8555Z" fill="#F78569"/>
<path d="M48.6123 31.4486C50.9263 29.6953 52.7126 28.0156 52.0377 24.8516C54.5598 26.4323 51.4592 31.8546 48.6123 31.4486Z" fill="#CC6C55"/>
</g>
<defs>
<clipPath id="clip0_6008_4718">
<rect width="54.3471" height="78.2614" fill="white" transform="translate(23.7393)"/>
</clipPath>
</defs>
</svg>
