<svg enable-background="new 0 0 731.1 236" viewBox="0 0 731.1 236" xmlns="http://www.w3.org/2000/svg"><path d="m592.3 232.7v-29.6h138.8v29.6zm-561.3-73.5c.4 5.3 2.5 10 6.5 14.1 4 4.2 10 6.2 17.9 6.2 6 0 10.4-1.3 13.3-3.9s4.3-5.7 4.3-9.4c0-3.1-1.1-5.7-3.3-8s-5.9-3.9-11.1-5l-17.6-4.1c-13-2.9-22.5-7.9-28.5-15.1-6-7.1-9-15.4-9-24.8 0-6 1.3-11.6 3.8-17 2.5-5.3 6-10 10.5-13.8 4.4-3.9 9.7-7 15.8-9.4s12.7-3.5 20-3.5c9.4 0 17.4 1.3 23.9 3.9s11.8 5.9 15.9 9.9 7.1 8.2 9.1 12.6 3.2 8.5 3.5 12.1l-30.1 6.8c-.4-2-1-4-1.8-6.1s-2.1-4-3.9-5.8-4-3.3-6.7-4.3c-2.6-1.1-5.8-1.6-9.6-1.6-4.7 0-8.7 1.3-12.1 3.8s-5 5.7-5 9.5c0 3.3 1.1 5.9 3.4 7.9s5.2 3.4 8.8 4.1l19 4.1c13.2 2.7 23.1 7.8 29.7 15.2s9.9 16 9.9 25.8c0 5.4-1 10.8-3.1 16-2.1 5.3-5.3 10-9.6 14.1-4.3 4.2-9.8 7.5-16.3 10s-14.1 3.8-22.8 3.8c-10.1 0-18.6-1.5-25.5-4.3-6.9-2.9-12.5-6.4-16.8-10.6s-7.6-8.6-9.6-13.4c-2.1-4.8-3.3-9.1-3.7-12.9zm165.1-60.3c-4.7 0-9.1.8-13.2 2.4s-7.7 4-10.7 7.2c-3.1 3.2-5.5 7.1-7.3 11.8s-2.7 10-2.7 16 .9 11.3 2.7 16 4.3 8.7 7.5 11.9c3.2 3.3 6.8 5.7 10.9 7.3s8.5 2.4 13.2 2.4c4.5 0 8.6-.7 12.1-2 3.5-1.4 6.6-3.1 9.1-5.3s4.6-4.6 6.1-7.3 2.7-5.3 3.4-7.9l31.8 10.6c-1.5 5.6-3.8 11.1-7.2 16.4s-7.7 10.1-12.9 14.4c-5.3 4.3-11.4 7.7-18.5 10.3s-15 3.9-23.9 3.9c-9.8 0-19-1.8-27.6-5.3s-16.1-8.5-22.4-14.8-11.3-13.8-14.9-22.4-5.4-18.1-5.4-28.4 1.8-19.8 5.3-28.5 8.4-16.2 14.7-22.4c6.2-6.2 13.6-11.1 22-14.7 8.4-3.5 17.5-5.3 27.3-5.3 9.1 0 17.2 1.3 24.3 3.9s13.3 6 18.6 10.2c5.2 4.2 9.5 9 12.8 14.4s5.6 11 7.1 16.6l-32.3 10.9c-1.6-5.6-4.8-10.8-9.4-15.5-4.9-4.5-11.7-6.8-20.5-6.8zm208.5-29.4h26.9v32h-26.9v55.9c0 5.8 1.3 9.8 3.9 12.1s6.6 3.4 11.8 3.4c2.2 0 4.3-.1 6.5-.3s3.7-.4 4.6-.8v29.9c-1.6.7-4.1 1.4-7.5 2.2-3.4.7-7.7 1.1-12.9 1.1-13 0-23.4-3.6-31-10.9-7.6-7.2-11.4-17.4-11.4-30.4v-62.2h-24.2v-32h6.8c7.1 0 12.3-2 15.6-6.1s5-9.1 5-15.1v-18.7h32.6v39.9zm176 95.4c-1.6 5.8-4.2 11.3-7.7 16.4-3.5 5.2-7.8 9.6-12.9 13.4s-11 6.8-17.8 9.1-14.3 3.4-22.4 3.4c-9.2 0-18-1.6-26.3-4.8s-15.7-7.8-22-14-11.4-13.7-15.1-22.5c-3.7-8.9-5.6-18.9-5.6-30.1 0-10.7 1.8-20.4 5.4-29.1s8.5-16.1 14.5-22.1c6.1-6.1 13.1-10.8 21-14.1 8-3.3 16.2-5 24.7-5 20.8 0 37 6.2 48.6 18.5s17.4 29.2 17.4 50.8c0 2.5-.1 4.9-.3 7.2s-.3 3.6-.3 3.9h-95.6c.2 4.3 1.2 8.4 3.1 12.1s4.3 6.9 7.3 9.6 6.5 4.8 10.5 6.4c4 1.5 8.2 2.3 12.8 2.3 8.5 0 15.2-1.9 20-5.7s8.3-8.7 10.5-14.7zm-33.7-43.8c-.2-3.3-.9-6.5-2-9.6-1.2-3.2-3-6-5.4-8.4s-5.5-4.4-9.2-6c-3.7-1.5-8.1-2.3-13.2-2.3-4.7 0-8.9.8-12.5 2.4s-6.7 3.7-9.2 6.2-4.5 5.3-5.8 8.4c-1.4 3.1-2.1 6.2-2.3 9.2h59.6zm-261.5 82v-133.6h36.1v133.6zm2.2-161.8c4.3 4.3 9.6 6.5 15.8 6.5 6.3 0 11.6-2.2 15.9-6.5s6.4-9.5 6.4-15.5c0-6.3-2.1-11.7-6.4-16s-9.6-6.5-15.9-6.5c-6.2 0-11.4 2.2-15.8 6.5-4.3 4.3-6.5 9.7-6.5 16 0 6 2.1 11.1 6.5 15.5z"/></svg>