<?xml version="1.0" encoding="UTF-8" standalone="no"?>
<!-- Created with Inkscape (http://www.inkscape.org/) -->

<svg
   version="1.1"
   id="svg2"
   width="1010.8133"
   height="348.07999"
   viewBox="0 0 1010.8133 348.07999"
   sodipodi:docname="LeanLibrary_FULL_RGB.eps"
   xmlns:inkscape="http://www.inkscape.org/namespaces/inkscape"
   xmlns:sodipodi="http://sodipodi.sourceforge.net/DTD/sodipodi-0.dtd"
   xmlns="http://www.w3.org/2000/svg"
   xmlns:svg="http://www.w3.org/2000/svg">
  <defs
     id="defs6" />
  <sodipodi:namedview
     id="namedview4"
     pagecolor="#ffffff"
     bordercolor="#000000"
     borderopacity="0.25"
     inkscape:showpageshadow="2"
     inkscape:pageopacity="0.0"
     inkscape:pagecheckerboard="0"
     inkscape:deskcolor="#d1d1d1" />
  <g
     id="g8"
     inkscape:groupmode="layer"
     inkscape:label="ink_ext_XXXXXX"
     transform="matrix(1.3333333,0,0,-1.3333333,0,348.08)">
    <g
       id="g10"
       transform="scale(0.1)">
      <path
         d="m 3984.08,1476.56 c -73.08,0 -121.6,-39.09 -147.09,-81.01 l -10.96,69.3 H 3725.4 v -464.31 h 130.47 v 242.45 c 0,89.12 42.48,124.24 92.71,124.24 50.41,0 86.86,-30.21 86.86,-120.28 v -246.22 h 130.28 v 272.66 c 0,118.2 -60.23,203.17 -181.64,203.17 z m -459.4,-295.13 c 0,-73.26 -57.21,-104.6 -111.59,-104.6 -41.36,0 -76.85,18.5 -76.85,57.59 0,30.4 21.71,50.98 87.8,61.74 l 100.64,15.67 z m -84.78,300.03 c -79.68,0 -160.69,-29.45 -195.24,-48.9 v -119.33 h 1.89 c 39.46,31.53 104.61,54.94 171.64,54.94 59.28,0 106.68,-19.82 106.68,-58.72 v -20.58 l -99.89,-9.82 c -122.35,-11.71 -216.19,-52.68 -216.19,-156.34 0,-90.82 77.04,-138.78 166.91,-138.78 v -0.192 c 76.1,0 127.46,37.202 157.1,81.192 l 11.9,-64.58 h 99.5 v 296.26 c 0,134.06 -99.5,184.85 -204.3,184.85 z m -615.92,-204.3 c 10.75,62.5 52.3,95.73 108.57,95.73 56.26,0 96.67,-37.19 96.67,-95.73 z m 336.47,-43.99 c 0,161.25 -85.91,249.24 -223,249.24 -148.03,0 -244.89,-112.16 -244.89,-252.07 0,-148.6 104.6,-247.36 256.6,-247.36 84.97,0 155.02,23.42 189.57,42.11 v 113.29 h -1.89 c -18.88,-14.73 -78.92,-48.9 -163.89,-48.9 -77.98,0 -131.23,29.26 -147.09,103.66 h 331.57 c 2.08,14.54 3.02,25.3 3.02,40.03 z M 2419.9,1116.86 v 509.24 h -135.19 v -625.56 h 393.69 v 116.32 z m 4452.54,347.23 v -212.04 c 0,-117.07 -63.45,-167.86 -125,-167.86 -61.56,0 -110.27,35.12 -110.27,155.21 v 224.69 h -83.08 v -248.1 c 0,-127.83 67.22,-202.23 172.77,-202.23 73.26,0 120.28,37.2 146.52,77.23 v -41.92 c 0,-103.66 -44.94,-161.25 -135.76,-161.25 -66.46,0 -133.87,28.321 -172.96,62.5 h -1.89 v -76.101 c 38.15,-32.278 103.67,-58.719 178.82,-58.719 146.52,0 213.93,92.898 213.93,245.28 v 403.31 z m -437.49,10.77 c -72.32,0 -113.48,-48.91 -134.82,-103.48 l -9.82,92.71 h -64.58 V 999.98 h 83.08 v 228.66 c 0,117.25 60.62,173.9 122.17,173.9 28.32,0 56.64,-9.82 70.24,-15.67 v 72.31 c -11.71,6.8 -38.89,15.68 -66.27,15.68 z m -378.02,-282.29 c 0,-88.93 -68.35,-140.86 -143.5,-140.86 -50.79,0 -96.49,22.66 -96.68,74.21 0,49.85 42.11,71.37 114.24,87.04 l 125.94,25.49 z m -105.55,285.31 c -73.26,0 -148.41,-25.49 -185.61,-47.96 v -79.12 h 2.08 c 48.72,33.23 111.21,52.68 174.85,52.68 63.44,0 114.23,-27.38 114.23,-84.02 v -26.25 l -122.16,-20.58 c -121.98,-20.58 -201.1,-58.72 -201.1,-153.32 0,-84.02 68.36,-132.931 162.01,-132.931 h 0.19 c 83.83,0 136.51,43.051 165.78,91.961 l 8.88,-78.17 h 64.38 v 313.62 c 0,120.09 -89.69,164.09 -183.53,164.09 z m -291.53,-3.02 c -72.13,0 -113.3,-48.91 -134.82,-103.48 l -9.82,92.71 h -64.39 V 999.98 h 83.08 v 228.66 c 0,117.25 60.61,173.9 122.17,173.9 28.13,0 56.46,-9.82 70.24,-15.67 v 72.31 c -11.9,6.8 -39.09,15.68 -66.46,15.68 z m -516.99,-415.22 c -90.82,0 -148.41,79.12 -148.41,173.91 0,91.76 55.51,169.93 148.41,169.93 92.9,0 149.54,-76.28 149.54,-172.01 0,-95.73 -58.72,-171.83 -149.54,-171.83 z m 19.82,416.16 c -73.26,0 -134.81,-40.03 -164.08,-91.77 v 241.13 h -83.08 v -624.99 h 63.44 l 10.77,85.91 c 26.24,-51.93 85.91,-98.748 169.74,-98.748 l 0.19,0.188 c 125.19,0 217.9,107.24 217.9,248.1 0,140.67 -91.77,240.18 -214.88,240.18 z m -440.7,-11.71 v -463.92 h 83.08 v 463.92 z m 40.79,211.86 c -33.05,0 -57.59,-23.41 -57.59,-53.63 0,-30.21 24.54,-54.75 57.59,-54.75 33.23,0 58.72,24.35 58.72,54.75 0,30.4 -25.49,53.63 -58.72,53.63 z m -405.21,-599.69 v 548.9 h -85.91 V 999.98 h 374.05 v 76.28 z M 1407.27,852.699 c -63.64,-3.777 -119.34,12.653 -167.68,50.789 -47.96,42.301 -55.13,54.762 -77.79,93.66 -3.97,6.792 -8.49,14.532 -13.78,23.412 77.22,-53.822 161.62,-50.599 194.1,-42.298 56.27,12.09 109.14,30.588 156.91,59.288 l 122.92,-117.628 c -62.68,-34.742 -141.61,-63.07 -214.68,-67.223 z m -287.39,885.181 c 104.23,0 188.63,-83.08 188.63,-185.42 v -514.91 c -104.22,0 -188.63,62.31 -188.63,164.65 z m 185.42,247.17 c -375.366,0 -679.745,-304.38 -679.745,-679.75 0,-375.37 304.379,-679.749 679.745,-679.749 375.38,0 679.75,304.379 679.75,679.749 0,375.37 -304.37,679.75 -679.75,679.75"
         style="fill:#1e1e34;fill-opacity:1;fill-rule:nonzero;stroke:none"
         id="path12" />
    </g>
  </g>
</svg>
