<svg width="32" height="32" viewBox="0 0 32 32" fill="none" xmlns="http://www.w3.org/2000/svg">
<path fill-rule="evenodd" clip-rule="evenodd" d="M5.33325 7.99167C5.33325 6.52501 6.51459 5.33301 7.99725 5.33301H10.6693C12.1413 5.33301 13.3333 6.54101 13.3333 7.99167V24.0077C13.3333 25.4743 12.1519 26.6663 10.6693 26.6663H7.99725C6.52525 26.6663 5.33325 25.4583 5.33325 24.0077V7.99167ZM18.6666 7.99167C18.6666 6.52501 19.8479 5.33301 21.3306 5.33301H24.0026C25.4746 5.33301 26.6666 6.54101 26.6666 7.99167V24.0077C26.6666 25.4743 25.4853 26.6663 24.0026 26.6663H21.3306C19.8586 26.6663 18.6666 25.4583 18.6666 24.0077V7.99167Z" fill="#6E6E6E"/>
</svg>
